<svg xmlns="http://www.w3.org/2000/svg" width="285" height="28" viewBox="0 0 285 28">
  <g id="btn_comment_on" transform="translate(-90.946 -28.239)">
    <rect id="長方形_267" data-name="長方形 267" width="285" height="28" transform="translate(90.946 28.239)" fill="none"/>
    <g id="グループ_511" data-name="グループ 511" transform="translate(-28.035 -1.039)">
      <path id="パス_5776" data-name="パス 5776" d="M24.894-3.375v-2.4H15.849L14.8-16.119h9.423V-18.5H14.526l-.3-3.1H11.718l.324,3.1H2.079v2.376H12.285L13.338-5.778H1.971v2.4H13.608l.486,4.806H16.6l-.486-4.806Zm25.839-7.56v-3.4H37.989l-.108-2.43H35.64l.108,2.43h-2.97v2.268h3.051l.54,13.311H38.61l-.54-13.311h10.4v1.35c0,4.4-2.322,5.184-6.588,5.184v2.268C47.3-3.267,50.733-4.941,50.733-10.935ZM81.4,1.107V-1.242a14.328,14.328,0,0,1-8.154-2.052A14.864,14.864,0,0,0,79-15.282v-5.157H59.616v2.376h16.9v3.051c0,8.856-8.046,13.824-17.739,13.824V1.161A24.858,24.858,0,0,0,71.172-1.89C74.115.243,76.9,1.107,81.4,1.107Zm27.81-8.451v-2.4h-8.154c-4.212,0-8.586-1.917-8.586-4.779V-21.3H90.018V1.215h2.457V-10.044a13.1,13.1,0,0,0,8.586,2.7ZM137.106.81V-14.2c0-3.726-2.133-5.481-5.832-5.481H116.208v2.376h15.255a2.985,2.985,0,0,1,3.24,3.1V-1.539h-18.5V.81Zm30.1-19.818v-2.43c-2.727,0-4.293.405-5.967,2.781l-5.076,7.263L149.2-15.012a7.333,7.333,0,0,0-3.564-1.134,5.394,5.394,0,0,0-.918.054V-13.5a2.719,2.719,0,0,1,.837-.135,7.219,7.219,0,0,1,3.051,1.08l6.129,3.213-3.1,4.455c-1.7,2.43-3.078,3.753-5.67,3.753h-2.241V1.215h2.673c3.078,0,5.022-1.4,7.155-4.509l3.375-4.887,9.693,5.076V-5.94l-8.262-4.32,4.752-6.858C164.079-18.522,165.132-19.008,167.211-19.008Zm17.82,1.782v-2.43H172.8v2.43Zm10.746-.756v-2.565c-2.646.378-4.185,2.43-4.32,5.535l-.081,1.944c-.3,7.155-3.888,11.88-12.285,11.88h-6.777v2.4h6.642c9.45,0,14.553-5.211,14.823-14.2l.054-1.728C193.887-16.362,194.427-17.793,195.777-17.982ZM222.615-7.344v-2.4h-8.154c-4.212,0-8.586-1.917-8.586-4.779V-21.3h-2.457V1.215h2.457V-10.044a13.1,13.1,0,0,0,8.586,2.7Z" transform="translate(149.51 53.376)" fill="#e84c92"/>
      <path id="パス_5776_-_アウトライン" data-name="パス 5776 - アウトライン" d="M17.158,1.931H13.642l-.486-4.806H1.471v-3.4H12.785l-.951-9.341H1.579V-19h9.908l-.324-3.1h3.52l.3,3.1h9.739v3.376h-9.37L16.3-6.278h9.093v3.4H16.672Zm-2.612-1h1.506l-.486-4.806h8.828v-1.4h-9L14.242-16.619h9.477V-18H14.072l-.3-3.1h-1.5L12.6-18H2.579v1.376H12.737L13.891-5.278H2.471v1.4H14.06Zm24.585.811H35.889l-.54-13.311H32.278v-3.268h2.947l-.108-2.43h3.242l.108,2.43H51.233v3.9c0,3.035-.847,5.154-2.59,6.48C47.128-3.3,44.978-2.767,41.877-2.767h-.5V-6.035h.5c2.338,0,3.718-.256,4.616-.857,1-.673,1.472-1.889,1.472-3.827v-.85H38.591Zm-2.282-1h1.24l-.54-13.311H48.965v1.85c0,2.3-.609,3.782-1.916,4.658-1.016.681-2.39.985-4.672,1.022v1.267c2.6-.053,4.408-.527,5.66-1.479,1.477-1.123,2.2-2.983,2.2-5.684v-2.9H37.511l-.108-2.43h-1.24l.108,2.43H33.278v1.268h3.031Zm169.526.973h-3.457V-21.8h3.457v7.277c0,.656.317,1.92,2.443,3.019a12.7,12.7,0,0,0,5.643,1.26h8.654v3.4h-8.654a16.627,16.627,0,0,1-5.115-.757,11.475,11.475,0,0,1-2.971-1.426Zm-2.457-1h1.457V-11.143l.829.722a12.728,12.728,0,0,0,8.258,2.577h7.654v-1.4h-7.654c-4.37,0-9.086-2.018-9.086-5.279V-20.8h-1.457Zm-24.962,1h-7.142v-3.4h7.277c3.883,0,6.85-1.044,8.819-3.1,1.819-1.9,2.817-4.695,2.967-8.3l.081-1.944a7.028,7.028,0,0,1,1.322-4.075,5.139,5.139,0,0,1,3.427-1.934l.571-.082v3.576l-.431.06c-1.243.174-1.482,1.822-1.514,2.788l-.054,1.727c-.14,4.649-1.526,8.288-4.12,10.815C187.522.413,183.753,1.715,178.956,1.715Zm-6.142-1h6.142c4.527,0,8.062-1.207,10.505-3.588,2.4-2.34,3.687-5.748,3.818-10.129l.054-1.729c.064-1.953.765-3.252,1.944-3.646v-1.561a3.992,3.992,0,0,0-2.206,1.441,6.142,6.142,0,0,0-1.115,3.506l-.081,1.943C191.54-4.962,187.119-.688,179.091-.688h-6.277Zm-26.42,1h-3.173V-1.634h2.741c2.352,0,3.617-1.192,5.26-3.54L154-9.163l-5.627-2.95a6.87,6.87,0,0,0-2.819-1.023,2.216,2.216,0,0,0-.693.114l-.644.193v-3.688l.418-.07a5.82,5.82,0,0,1,1-.061,7.775,7.775,0,0,1,3.791,1.189l6.58,3.418,4.825-6.9a6.606,6.606,0,0,1,2.8-2.456,9.169,9.169,0,0,1,3.573-.539h.5v3.43h-.5c-1.918,0-2.815.407-3.693,1.675l-4.43,6.393,8.029,4.2v3.964L157.084-7.533,153.96-3.01C151.625.39,149.5,1.715,146.394,1.715Zm-2.173-1h2.173c2.766,0,4.593-1.163,6.743-4.292l3.627-5.252,9.353,4.9V-5.637l-8.5-4.442L162.7-17.4a4.532,4.532,0,0,1,4.015-2.095v-1.435a7.136,7.136,0,0,0-2.684.454,5.588,5.588,0,0,0-2.375,2.109l-5.326,7.621-7.355-3.82a6.823,6.823,0,0,0-3.334-1.078c-.142,0-.28,0-.418.006v1.523a3.1,3.1,0,0,1,.337-.018A7.525,7.525,0,0,1,148.842-13l6.63,3.475L152.042-4.6c-1.8,2.573-3.3,3.967-6.08,3.967h-1.741Zm-51.246,1H89.518V-21.8h3.457v7.277c0,.656.317,1.92,2.443,3.019a12.7,12.7,0,0,0,5.643,1.26h8.654v3.4h-8.654A16.627,16.627,0,0,1,95.946-7.6a11.474,11.474,0,0,1-2.971-1.426Zm-2.457-1h1.457V-11.143l.828.722a12.728,12.728,0,0,0,8.257,2.577h7.654v-1.4h-7.654c-4.37,0-9.086-2.018-9.086-5.279V-20.8H90.518Zm-31.739.946h-.5V-1.688h.5a20.857,20.857,0,0,0,12.21-3.5,11.75,11.75,0,0,0,5.029-9.829v-2.551h-16.9v-3.376H79.5v5.657a15.779,15.779,0,0,1-1.591,7.056,15.5,15.5,0,0,1-3.8,4.866A14.354,14.354,0,0,0,81.4-1.742h.5V1.607h-.5A20.267,20.267,0,0,1,75.559.888,14.943,14.943,0,0,1,71.141-1.3,25.532,25.532,0,0,1,58.779,1.661Zm.5-2.353V.657a24.184,24.184,0,0,0,11.644-2.98l.281-.161.262.19A14.851,14.851,0,0,0,80.9.6V-.747a14.478,14.478,0,0,1-7.923-2.126l-.589-.377.548-.436a14.348,14.348,0,0,0,5.562-11.6v-4.657H60.116v1.376h16.9v3.551a12.715,12.715,0,0,1-5.44,10.637A21.629,21.629,0,0,1,59.279-.692Zm78.327,2h-21.9V-2.039H134.2V-14.2a2.568,2.568,0,0,0-.7-1.867,2.8,2.8,0,0,0-2.036-.738H115.708v-3.376h15.566a6.694,6.694,0,0,1,4.639,1.473,5.807,5.807,0,0,1,1.693,4.508Zm-20.9-1h19.9V-14.2a4.862,4.862,0,0,0-1.365-3.768,5.749,5.749,0,0,0-3.967-1.213H116.708v1.376h14.755A3.479,3.479,0,0,1,135.2-14.2V-1.039H116.708Zm68.823-17.036H172.3v-3.43h13.231Zm-12.231-1h11.231v-1.43H173.3Z" transform="translate(149.51 53.376)" fill="#e84c92"/>
    </g>
  </g>
</svg>
