<svg xmlns="http://www.w3.org/2000/svg" width="285" height="28" viewBox="0 0 285 28">
  <g id="btn_netacomment_on" transform="translate(-90.946 -28.239)">
    <g id="グループ_510" data-name="グループ 510" transform="translate(-2.17 -1.174)">
      <path id="パス_5773" data-name="パス 5773" d="M24.867-3.024v-2.43l-3.213-.081a25.5,25.5,0,0,1-4.428-.432A12.948,12.948,0,0,0,23.679-17.28V-19.2H14.418v-2.565h-2.4V-19.2H2.835v2.4H20.952c0,5.94-4.725,10.854-13.77,11.178l-5.076.189v2.4l5.13-.189a23.433,23.433,0,0,0,4.779-.675V1.458h2.4V-4.59a16.743,16.743,0,0,0,7.236,1.458Zm29.214-2V-7.533c-.567-.3-1.269-.594-2.052-.918a18.065,18.065,0,0,0,.162-2.43V-20.2H33.777v1.215c0,4.536-1.485,6.912-3.4,7.1v2.646c3.132-.432,5.292-3.348,5.535-8.586H49.788v6.831c0,.594-.027,1.188-.081,1.728a50.41,50.41,0,0,0-14.526-2.025v2.322A49.784,49.784,0,0,1,49.248-6.939C48.222-3.645,45.441-1.4,38.664-1.4H32.427V.945h6.345c8.181,0,11.529-3.159,12.771-7.1A16.589,16.589,0,0,1,54.081-5.022ZM82.323-20.331v-1.458H77.058v1.458Zm0,2.727v-1.458H77.058V-17.6Zm.459,18.846V-1.242c-3.429-.351-4.239-1.7-4.239-6.048v-8.964h-2.4v8.775C76.14-1.107,78.3.837,82.782,1.242ZM64.233-7.479v-13.8H61.857V-7.29c0,4.347-.81,5.7-4.266,6.048V1.242C62.1.837,64.233-1.107,64.233-7.479Zm45.954-4.914V-14.9c-2.484,0-4.4,1.485-5.292,4.617-1.566,5.481-4.32,9.1-11.016,9.1H90.585V-21.3H88.209V1.242h5.373c7.668,0,11.61-4.023,13.257-10.206C107.406-11.07,108.4-12.393,110.187-12.393Zm28.836-6.237v-2.16H125.6a12.2,12.2,0,0,0,.324-1.674h-2.592a12.438,12.438,0,0,1-.378,1.674H114.7v2.16h7.371a14.338,14.338,0,0,1-7.371,6.75v2.97a18.484,18.484,0,0,0,2.349-1.08V1.836h2.376V-3.321H135.54v1.512c0,1.08-.486,1.728-1.674,1.728h-3.483V1.836h4.185a3,3,0,0,0,3.348-3.294V-15.579H123.2a16.036,16.036,0,0,0,1.7-3.051Zm-3.483,8.289H119.421v-1.242a16.29,16.29,0,0,0,2.133-1.944H135.54Zm0,5.1H119.421V-8.4H135.54Zm30.4-3.4v-6.345c0-4.266-2.349-6.345-5.967-6.345-2.43,0-6.345,2.079-13.311,11.718V-21.006h-2.4V-5.913h2.4v-.135l.054.135c6.993-9.72,10.908-12.906,13.284-12.906,2.349,0,3.564,1.7,3.564,4v6.1c0,5.427-2.592,7.749-7.371,7.749H145.584V1.35h10.692C162.837,1.35,165.942-1.971,165.942-8.64ZM193.806.81V-14.2c0-3.726-2.133-5.481-5.832-5.481H172.908v2.376h15.255a2.985,2.985,0,0,1,3.24,3.1V-1.539H172.908V.81Zm30.1-19.818v-2.43c-2.727,0-4.293.405-5.967,2.781l-5.076,7.263L205.9-15.012a7.333,7.333,0,0,0-3.564-1.134,5.394,5.394,0,0,0-.918.054V-13.5a2.719,2.719,0,0,1,.837-.135,7.219,7.219,0,0,1,3.051,1.08l6.129,3.213-3.1,4.455c-1.7,2.43-3.078,3.753-5.67,3.753h-2.241V1.215h2.673c3.078,0,5.022-1.4,7.155-4.509l3.375-4.887,9.693,5.076V-5.94l-8.262-4.32,4.752-6.858C220.779-18.522,221.832-19.008,223.911-19.008Zm17.82,1.782v-2.43H229.5v2.43Zm10.746-.756v-2.565c-2.646.378-4.185,2.43-4.32,5.535l-.081,1.944c-.3,7.155-3.888,11.88-12.285,11.88h-6.777v2.4h6.642c9.45,0,14.553-5.211,14.823-14.2l.054-1.728C250.587-16.362,251.127-17.793,252.477-17.982ZM279.315-7.344v-2.4h-8.154c-4.212,0-8.586-1.917-8.586-4.779V-21.3h-2.457V1.215h2.457V-10.044a13.1,13.1,0,0,0,8.586,2.7Z" transform="translate(94.51 54.376)" fill="#e84c92"/>
      <path id="パス_5773_-_アウトライン" data-name="パス 5773 - アウトライン" d="M134.568,2.336h-4.685V-.581h3.983c.845,0,1.174-.344,1.174-1.228V-2.821H119.921V2.336h-3.376V-9.169a16.718,16.718,0,0,1-1.677.729l-.672.246v-4.038l.331-.119a13.625,13.625,0,0,0,6.687-5.779H114.2v-3.16h8.382a10.724,10.724,0,0,0,.263-1.245l.061-.429h3.576l-.052.547a8.967,8.967,0,0,1-.191,1.127h13.288v3.16H125.229a16.767,16.767,0,0,1-1.092,2.051h14.279V-1.458a3.774,3.774,0,0,1-1,2.78A3.867,3.867,0,0,1,134.568,2.336Zm-3.685-1h3.685a2.917,2.917,0,0,0,2.141-.721,2.822,2.822,0,0,0,.707-2.073V-15.079H122.229l.565-.791a15.56,15.56,0,0,0,1.648-2.956l.129-.3h13.952v-1.16H124.971l.174-.733c.077-.322.151-.632.207-.941h-1.593c-.091.482-.211.926-.321,1.311l-.1.363H115.2v1.16h7.7l-.381.731a14.959,14.959,0,0,1-7.314,6.864v1.888c.5-.212,1.023-.468,1.613-.784l.736-.394V1.336h1.376V-3.821H136.04v2.012A1.986,1.986,0,0,1,133.866.419h-2.983ZM14.918,1.958h-3.4V-3.26a23.3,23.3,0,0,1-4.263.547l-5.646.208v-3.4l5.557-.207c4.166-.149,7.612-1.311,9.967-3.361a9.408,9.408,0,0,0,3.31-6.818H2.335v-3.4h9.18v-2.565h3.4V-19.7h9.261v2.417a13.448,13.448,0,0,1-1.69,6.639,13.6,13.6,0,0,1-3.93,4.387c.886.113,1.926.186,3.108.219l3.7.093v3.435l-3.73-.125A19.118,19.118,0,0,1,14.918-3.8Zm-2.4-1h1.4V-5.423l.735.391c1.594.848,3.824,1.293,7.018,1.4l2.7.091V-4.966l-2.726-.069a26.275,26.275,0,0,1-4.518-.443l-1.237-.26,1.08-.656a12.874,12.874,0,0,0,4.649-4.734,12.459,12.459,0,0,0,1.563-6.152V-18.7H13.918v-2.565h-1.4V-18.7H3.335v1.4H21.452v.5a10.693,10.693,0,0,1-.924,4.412,10.582,10.582,0,0,1-2.741,3.66C15.257-6.521,11.6-5.274,7.2-5.116l-4.594.171v1.4l4.612-.17a22.89,22.89,0,0,0,4.68-.661l.617-.149Zm143.761.892H145.084V-1.472h11.111c4.688,0,6.871-2.3,6.871-7.249v-6.1c0-2.189-1.145-3.5-3.064-3.5-1.136,0-2.673.9-4.569,2.673a71.693,71.693,0,0,0-8.269,9.969v.264h-.19l-.382.531-.213-.531h-2.618V-21.506h3.4v10.368a46.665,46.665,0,0,1,7.544-8.338c1.978-1.584,3.7-2.354,5.267-2.354a6.411,6.411,0,0,1,4.7,1.722,7.016,7.016,0,0,1,1.771,5.123V-8.64a15.164,15.164,0,0,1-.611,4.525A8.349,8.349,0,0,1,163.93-.8a7.961,7.961,0,0,1-3.214,2A13.781,13.781,0,0,1,156.276,1.85Zm-10.192-1h10.192c3.154,0,5.422-.765,6.933-2.34s2.233-3.905,2.233-7.15v-6.345a6.068,6.068,0,0,0-1.483-4.421,5.372,5.372,0,0,0-3.984-1.424c-1.33,0-2.849.7-4.642,2.135a49.522,49.522,0,0,0-8.264,9.376l-.905,1.253v-12.44h-1.4V-6.413h1.7a70.866,70.866,0,0,1,8.288-9.963c2.117-1.98,3.835-2.943,5.252-2.943A3.826,3.826,0,0,1,163.048-18a4.868,4.868,0,0,1,1.018,3.18v6.1c0,2.827-.667,4.875-2.038,6.261C160.7-1.122,158.8-.472,156.195-.472H146.084Zm-62.8.939-.545-.049c-2.572-.232-4.22-.943-5.342-2.3-1.2-1.45-1.755-3.648-1.755-6.916v-9.275h3.4V-7.29c0,4.2.708,5.235,3.79,5.551l.449.046ZM76.64-15.754v8.275c0,3.023.485,5.018,1.526,6.28A5.921,5.921,0,0,0,82.282.685V-.8a4.356,4.356,0,0,1-3.318-1.687c-.654-.958-.921-2.35-.921-4.8v-8.464ZM57.091,1.789V-1.694l.449-.046c3.1-.315,3.817-1.353,3.817-5.551V-21.776h3.376v14.3c0,3.272-.554,5.47-1.744,6.916C61.869.8,60.218,1.508,57.636,1.74Zm1-2.587V.686A5.918,5.918,0,0,0,62.217-1.2c1.034-1.257,1.516-3.253,1.516-6.28v-13.3H62.357V-7.29c0,2.456-.268,3.848-.925,4.805A4.39,4.39,0,0,1,58.091-.8Zm35.491,2.54H87.709V-21.8h3.376V-1.688h2.794a9.969,9.969,0,0,0,7.093-2.361,13.293,13.293,0,0,0,3.443-6.375,7.4,7.4,0,0,1,2.206-3.727,5.36,5.36,0,0,1,3.566-1.252h.5v3.511h-.5c-.876,0-2.127.317-2.865,3.059a14.5,14.5,0,0,1-4.535,7.677A14.035,14.035,0,0,1,93.582,1.742Zm-4.873-1h4.873a13.071,13.071,0,0,0,8.568-2.67,13.533,13.533,0,0,0,4.206-7.165,6.407,6.407,0,0,1,1.333-2.713,3.219,3.219,0,0,1,2-1.055v-1.52c-2.092.2-3.577,1.649-4.311,4.231a14.222,14.222,0,0,1-3.726,6.835C99.736-1.547,97.194-.688,93.879-.688H90.085V-20.8H88.709Zm174.366.973h-3.457V-21.8h3.457v7.277c0,.656.317,1.92,2.443,3.019a12.7,12.7,0,0,0,5.643,1.26h8.654v3.4h-8.654a16.628,16.628,0,0,1-5.115-.757,11.474,11.474,0,0,1-2.971-1.426Zm-2.457-1h1.457V-11.143l.829.722a12.727,12.727,0,0,0,8.257,2.577h7.654v-1.4h-7.654c-4.37,0-9.086-2.018-9.086-5.279V-20.8h-1.457Zm-24.962,1h-7.142v-3.4h7.277c3.883,0,6.85-1.044,8.819-3.1,1.819-1.9,2.817-4.695,2.967-8.3l.081-1.944a7.028,7.028,0,0,1,1.322-4.075,5.139,5.139,0,0,1,3.427-1.934l.571-.082v3.576l-.431.06c-1.243.174-1.482,1.822-1.514,2.788l-.054,1.727c-.14,4.649-1.526,8.288-4.12,10.815C244.222.413,240.453,1.715,235.656,1.715Zm-6.142-1h6.142c4.527,0,8.062-1.207,10.505-3.588,2.4-2.34,3.687-5.748,3.818-10.129l.054-1.729c.064-1.953.765-3.252,1.944-3.646v-1.561a3.992,3.992,0,0,0-2.206,1.441,6.142,6.142,0,0,0-1.115,3.506l-.081,1.943C248.24-4.962,243.819-.688,235.791-.688h-6.277Zm-26.42,1h-3.173V-1.634h2.741c2.352,0,3.617-1.192,5.26-3.54l2.78-3.989-5.627-2.95a6.869,6.869,0,0,0-2.819-1.023,2.215,2.215,0,0,0-.693.114l-.644.193v-3.688l.418-.07a5.822,5.822,0,0,1,1-.061,7.775,7.775,0,0,1,3.791,1.189l6.58,3.418,4.825-6.9a6.606,6.606,0,0,1,2.8-2.456,9.168,9.168,0,0,1,3.573-.539h.5v3.43h-.5c-1.918,0-2.815.407-3.693,1.675l-4.43,6.393,8.029,4.2v3.964L213.784-7.533,210.66-3.01C208.325.39,206.2,1.715,203.094,1.715Zm-2.173-1h2.173c2.766,0,4.594-1.163,6.743-4.292l3.627-5.252,9.353,4.9V-5.637l-8.5-4.442L219.4-17.4a4.532,4.532,0,0,1,4.015-2.095v-1.435a7.136,7.136,0,0,0-2.684.454,5.588,5.588,0,0,0-2.375,2.109l-5.326,7.621-7.355-3.82a6.823,6.823,0,0,0-3.334-1.078c-.142,0-.28,0-.418.006v1.523a3.1,3.1,0,0,1,.337-.018A7.525,7.525,0,0,1,205.542-13l6.63,3.475L208.742-4.6c-1.8,2.573-3.3,3.967-6.08,3.967h-1.741Zm-162.149.73H31.927V-1.9h6.737a14.335,14.335,0,0,0,7.2-1.464A6.164,6.164,0,0,0,48.6-6.607,49.808,49.808,0,0,0,35.181-8.464h-.5v-3.042l-.04.06a5.948,5.948,0,0,1-4.2,2.708l-.568.078v-3.673l.451-.044A2.678,2.678,0,0,0,32.35-14.03a11.144,11.144,0,0,0,.927-4.951V-20.7H52.691v9.815a18.915,18.915,0,0,1-.118,2.114c.634.265,1.236.527,1.74.791l.268.14v3.684l-.752-.439a14.432,14.432,0,0,0-1.98-.915,9.371,9.371,0,0,1-3.821,4.8C45.786.721,42.672,1.445,38.772,1.445Zm-5.845-1h5.845c6.841,0,10.863-2.208,12.294-6.751l.158-.5.492.181c.727.268,1.344.524,1.865.775V-7.226c-.511-.25-1.116-.5-1.743-.763l-.357-.148.053-.383a17.6,17.6,0,0,0,.157-2.362V-19.7H34.277v.715a12.109,12.109,0,0,1-1.038,5.41,3.869,3.869,0,0,1-2.364,2.11v1.62c2.688-.693,4.33-3.567,4.536-8l.022-.477H50.288v7.331c0,.617-.029,1.232-.083,1.778l-.061.606-.582-.177a49.593,49.593,0,0,0-13.881-2v1.322A50.57,50.57,0,0,1,49.392-7.418l.483.146-.15.482A7.207,7.207,0,0,1,46.364-2.5c-1.851,1.077-4.369,1.6-7.7,1.6H32.927Zm1.929-12.231h.325A51.355,51.355,0,0,1,49.257-9.915c.02-.346.031-.709.031-1.074V-17.32H36.382A12.427,12.427,0,0,1,34.856-11.786Zm159.45,13.1h-21.9V-2.039h18.5V-14.2a2.568,2.568,0,0,0-.7-1.867,2.8,2.8,0,0,0-2.036-.738H172.408v-3.376h15.566a6.694,6.694,0,0,1,4.639,1.473,5.807,5.807,0,0,1,1.693,4.508Zm-20.9-1h19.9V-14.2a4.863,4.863,0,0,0-1.365-3.768,5.749,5.749,0,0,0-3.967-1.213H173.408v1.376h14.755a3.479,3.479,0,0,1,3.74,3.6V-1.039h-18.5ZM136.04-4.738H118.921V-8.9H136.04Zm-16.119-1H135.04V-7.9H119.921Zm16.119-4.1H118.921v-1.99l.2-.15a15.714,15.714,0,0,0,2.068-1.885l.148-.161h14.7Zm-16.119-1H135.04v-2.186H121.771a16.661,16.661,0,0,1-1.85,1.69Zm122.31-5.885H229v-3.43h13.231Zm-12.231-1h11.231v-1.43H230ZM82.823-17.1H76.558v-2.458h6.265Zm-5.265-1h4.265v-.458H77.558Zm5.265-1.727H76.558v-2.458h6.265Zm-5.265-1h4.265v-.458H77.558Z" transform="translate(94.51 54.376)" fill="#e84c92"/>
    </g>
    <rect id="長方形_267" data-name="長方形 267" width="285" height="28" transform="translate(90.946 28.239)" fill="none"/>
  </g>
</svg>
