<svg xmlns="http://www.w3.org/2000/svg" width="577.587" height="50.467" viewBox="0 0 577.587 50.467">
  <g id="title_s_movie" transform="translate(2.389 -33.828)">
    <rect id="長方形_76" data-name="長方形 76" width="577.587" height="20.467" transform="translate(-2.389 63.828)" fill="#b9dffd"/>
    <path id="パス_5775" data-name="パス 5775" d="M-239.552-19.84l-5.952.928a29.743,29.743,0,0,1-3.52.352l.64,3.936a34.132,34.132,0,0,1,3.52-.736l5.952-.928.96,5.248-7.776,1.248a19.692,19.692,0,0,1-3.392.32l.64,3.936a25.75,25.75,0,0,1,3.264-.7l7.9-1.248,1.152,6.3a24.217,24.217,0,0,1,.416,3.36l4.288-.768a18.075,18.075,0,0,1-.768-3.3L-233.376-8.1l7.616-1.216c.64-.1,1.056-.16,1.28-.192a2.487,2.487,0,0,1,.512-.064,7.675,7.675,0,0,1,1.472-.16l-.7-3.84a28.437,28.437,0,0,1-3.328.736l-7.52,1.184-.96-5.248,6.752-1.056a27.168,27.168,0,0,1,3.072-.416l-.672-3.84a16.483,16.483,0,0,1-3.072.7l-6.752,1.056-.512-2.784a22.014,22.014,0,0,1-.384-3.008l-4.224.672a13.788,13.788,0,0,1,.768,3.008Zm29.5,4.352-2.656.448a17.948,17.948,0,0,1-3.04.288l.672,3.648a16.454,16.454,0,0,1,2.816-.7l2.752-.448L-207.328-.32a13.343,13.343,0,0,1,.256,2.592l4-.7a12.248,12.248,0,0,1-.608-2.592l-2.272-11.84,7.52-1.248a9.855,9.855,0,0,0,1.184-.224,15.071,15.071,0,0,1-5.44,5.728,9.016,9.016,0,0,1,2.976,2.272,18.175,18.175,0,0,0,6.3-8.32,7.326,7.326,0,0,1,.8-1.536l-2.24-2.016a8.077,8.077,0,0,1-2.112.544l-9.568,1.6-.48-2.464a12.57,12.57,0,0,1-.32-2.464l-3.808.576a10.065,10.065,0,0,1,.608,2.4Zm28.512-5.728a24.607,24.607,0,0,1,3.68-.16h11.3a24.607,24.607,0,0,1,3.68.16v-3.936a18.208,18.208,0,0,1-3.744.224h-11.168a18.208,18.208,0,0,1-3.744-.224Zm20.288,3.712a14,14,0,0,1-3.616.288H-180.1a22.714,22.714,0,0,1-4.16-.224v3.9a32.553,32.553,0,0,1,4.1-.16h15.584a16.65,16.65,0,0,1-5.152,7.488,20.781,20.781,0,0,1-8.9,4.224,11.15,11.15,0,0,1,2.5,3.712,28.476,28.476,0,0,0,8.384-4.352A22.628,22.628,0,0,0-160.32-13.44a14.427,14.427,0,0,1,.9-2.016Zm31.2-4.992a5.669,5.669,0,0,1-2.336.32l-7.008.1c-.608,0-1.12.032-1.536.064a7.548,7.548,0,0,0,.512-1.024l.416-.832a6.461,6.461,0,0,1,.416-.9,6.546,6.546,0,0,1,.544-.992l-4.384-.864a11.943,11.943,0,0,1-1.632,4.224,24.616,24.616,0,0,1-8.288,9.28,8.5,8.5,0,0,1,3.1,2.752,31.321,31.321,0,0,0,7.488-8.192l9.632-.16a25.34,25.34,0,0,1-9.344,13.5,28.818,28.818,0,0,1-7.008,3.776,9.86,9.86,0,0,1,2.72,3.36A32.327,32.327,0,0,0-135.36-6.208,33.191,33.191,0,0,0-128.8-18.56a6.019,6.019,0,0,1,.8-1.92Zm32-.48a8.4,8.4,0,0,1-2.816.384c-7.808.064-7.808.064-8.32.128A15.947,15.947,0,0,0-108.416-24a16.861,16.861,0,0,1,.96-1.792l-4.16-.928a19.508,19.508,0,0,1-1.856,4.448,27.51,27.51,0,0,1-8.032,9.12,10.158,10.158,0,0,1,3.2,2.56,33.106,33.106,0,0,0,7.488-8.608l9.952-.1a30.574,30.574,0,0,1-3.584,7.552,41.652,41.652,0,0,0-6.432-4.288l-2.432,2.848a36.227,36.227,0,0,1,6.56,4.576A23.229,23.229,0,0,1-112-4.16a32.251,32.251,0,0,1-6.24,3.2,10.156,10.156,0,0,1,2.656,3.3c6.816-3.136,11.328-6.912,14.592-12.224a53.672,53.672,0,0,0,4.1-8.8,5.732,5.732,0,0,1,.992-2.144Zm8.32,12.928a35.129,35.129,0,0,1,5.216-.16H-67.52a35.129,35.129,0,0,1,5.216.16V-14.5a31.425,31.425,0,0,1-5.184.224H-84.544a31.425,31.425,0,0,1-5.184-.224Zm39.136-11.68a16.243,16.243,0,0,1,.16-2.976H-54.72a16.9,16.9,0,0,1,.128,2.944l.032,14.848a24.112,24.112,0,0,0,.1,2.944A4.424,4.424,0,0,0-52.9-.7C-51.648.256-49.44.672-45.408.672c1.952,0,5.984-.192,7.872-.384,3.392-.32,3.552-.352,4.224-.352L-33.5-4.32a18.906,18.906,0,0,1-3.648.768,60.348,60.348,0,0,1-7.424.512c-3.1,0-4.928-.288-5.472-.832-.448-.448-.576-1.152-.576-2.944a3.115,3.115,0,0,1,.032-.512v-4.224a54.194,54.194,0,0,0,15.04-5.088l.832-.416a4.68,4.68,0,0,1,.672-.288l-2.56-3.616c-2.08,1.952-9.152,4.8-13.984,5.7Zm18.432-5.664a3.7,3.7,0,0,0-3.68,3.68A3.708,3.708,0,0,0-32.16-20a3.715,3.715,0,0,0,3.712-3.712A3.708,3.708,0,0,0-32.16-27.392Zm0,1.6a2.083,2.083,0,0,1,2.112,2.08A2.11,2.11,0,0,1-32.16-21.6a2.1,2.1,0,0,1-2.08-2.112A2.076,2.076,0,0,1-32.16-25.792Zm8.32,8.384a32.014,32.014,0,0,1,2.912,7.744l3.616-1.152A36.912,36.912,0,0,0-20.448-18.4Zm6.848-1.344a35.188,35.188,0,0,1,2.912,7.52l3.552-1.12a31.436,31.436,0,0,0-3.1-7.36Zm11.008-.32a14.2,14.2,0,0,1-.576,3.68c-1.376,5.12-3.52,8.384-7.264,11.1a20.757,20.757,0,0,1-5.44,2.944A11.623,11.623,0,0,1-16.7,1.824c4.736-2.4,7.392-4.48,9.76-7.712A27.316,27.316,0,0,0-2.528-16.544a6.735,6.735,0,0,1,.448-1.632ZM28.992-22.5a5.669,5.669,0,0,1-2.336.32l-7.008.1c-.608,0-1.12.032-1.536.064a7.546,7.546,0,0,0,.512-1.024l.416-.832a6.459,6.459,0,0,1,.416-.9A6.543,6.543,0,0,1,20-25.76l-4.384-.864A11.943,11.943,0,0,1,13.984-22.4,24.616,24.616,0,0,1,5.7-13.12a8.5,8.5,0,0,1,3.1,2.752,31.321,31.321,0,0,0,7.488-8.192l9.632-.16a25.34,25.34,0,0,1-9.344,13.5A28.818,28.818,0,0,1,9.568-1.44a9.86,9.86,0,0,1,2.72,3.36A32.327,32.327,0,0,0,23.68-6.208,33.191,33.191,0,0,0,30.24-18.56a6.019,6.019,0,0,1,.8-1.92ZM62.848-24.48a8.809,8.809,0,0,1-3.1.288H43.04a25.512,25.512,0,0,1-4.416-.256v4a30.759,30.759,0,0,1,4.352-.192h16.8a13.27,13.27,0,0,1-3.04,4.064,14.839,14.839,0,0,1-4.672,2.944,10.815,10.815,0,0,1,2.88,2.912,20.016,20.016,0,0,0,3.84-2.656,20.308,20.308,0,0,0,4.928-6.432,8.893,8.893,0,0,1,1.28-2.24Zm-15.2,6.464a8.1,8.1,0,0,1,.16,1.92c0,6.048-1.024,8.8-4.288,11.392a14.755,14.755,0,0,1-5.6,2.72,11.3,11.3,0,0,1,2.528,3.648c4-1.664,6.336-3.3,8.256-5.76,2.176-2.784,3.04-5.856,3.168-11.328A14.691,14.691,0,0,1,52-18.016Zm24.512.608a32.015,32.015,0,0,1,2.912,7.744l3.616-1.152A36.912,36.912,0,0,0,75.552-18.4Zm6.848-1.344a35.188,35.188,0,0,1,2.912,7.52l3.552-1.12a31.436,31.436,0,0,0-3.1-7.36Zm11.008-.32a14.2,14.2,0,0,1-.576,3.68c-1.376,5.12-3.52,8.384-7.264,11.1a20.757,20.757,0,0,1-5.44,2.944A11.623,11.623,0,0,1,79.3,1.824c4.736-2.4,7.392-4.48,9.76-7.712a27.316,27.316,0,0,0,4.416-10.656,6.735,6.735,0,0,1,.448-1.632Zm16.608-4.192a21.925,21.925,0,0,1-4.1-.224v4.16a23.055,23.055,0,0,1,4.032-.192h15.232c-2.048,8.512-7.84,14.464-16.7,17.216A11.776,11.776,0,0,1,107.9,1.5C118.016-2.72,123.68-9.248,126.272-19.712a4.373,4.373,0,0,0,.608.064,3.715,3.715,0,0,0,3.712-3.712,3.708,3.708,0,0,0-3.712-3.68,3.687,3.687,0,0,0-3.68,3.712c-.544.032-.928.064-1.888.064ZM126.88-25.44a2.083,2.083,0,0,1,2.112,2.08,2.11,2.11,0,0,1-2.112,2.112,2.1,2.1,0,0,1-2.08-2.112A2.076,2.076,0,0,1,126.88-25.44Zm13.152-.512a50.61,50.61,0,0,1-2.336,8.864c-1.664,5.248-2.944,8.864-4.64,12.9-1.344.064-2.112.1-2.752.1h-.832l.576,4.32A17.5,17.5,0,0,1,132.96-.16c9.568-.928,14.88-1.6,18.112-2.272.736-.16.736-.16,1.152-.256A32.768,32.768,0,0,1,153.76,1.28l3.872-2.016a74.851,74.851,0,0,0-7.744-14.816l-3.616,1.408a39.728,39.728,0,0,1,3.04,5.088c.768,1.44,1.152,2.144,1.5,2.912A126.468,126.468,0,0,1,137.5-4.512a190.057,190.057,0,0,0,6.336-18.24,9.8,9.8,0,0,1,.832-2.3Zm20.8,15.9a35.13,35.13,0,0,1,5.216-.16H183.04a35.13,35.13,0,0,1,5.216.16V-14.5a31.425,31.425,0,0,1-5.184.224H166.016a31.425,31.425,0,0,1-5.184-.224Zm39.3-11.744a16.244,16.244,0,0,1,.16-2.976H196a16.9,16.9,0,0,1,.128,2.944l.032,14.848a24.114,24.114,0,0,0,.1,2.944,4.424,4.424,0,0,0,1.568,3.264c1.248.96,3.456,1.376,7.488,1.376,1.952,0,5.984-.192,7.872-.384,3.392-.32,3.552-.352,4.224-.352l-.192-4.256a18.906,18.906,0,0,1-3.648.768,60.348,60.348,0,0,1-7.424.512c-3.1,0-4.928-.256-5.472-.832-.448-.448-.576-1.184-.576-3.04a2.124,2.124,0,0,1,.032-.416v-4.224a54.18,54.18,0,0,0,13.664-4.416c1.7-.832,2.656-1.28,2.88-1.376l-2.56-3.616c-2.08,1.952-9.152,4.8-13.984,5.7Zm12.928-3.456a20.467,20.467,0,0,1,3.168,4.9l2.3-1.056a20.346,20.346,0,0,0-3.2-4.864ZM222.4-23.36A18.826,18.826,0,0,0,219.264-28l-2.208,1.024a23.814,23.814,0,0,1,3.072,4.768Zm-.128,13.312a35.13,35.13,0,0,1,5.216-.16H244.48a35.13,35.13,0,0,1,5.216.16V-14.5a31.425,31.425,0,0,1-5.184.224H227.456a31.425,31.425,0,0,1-5.184-.224Z" transform="translate(288.875 73.117)" fill="#fff"/>
    <path id="パス_5775_-_アウトライン" data-name="パス 5775 - アウトライン" d="M220.292-32.886l1.974,2.244A22.771,22.771,0,0,1,226-25.1l1.7,3.532-3.817,1.935.067.134-2.005.919.861.117a28.674,28.674,0,0,0,4.644.187h17.056a28.674,28.674,0,0,0,4.644-.187l4.54-.619V-5.517l-4.5-.562a32.859,32.859,0,0,0-4.72-.129H227.488a32.86,32.86,0,0,0-4.72.129l-1.615.2.44,9.749h-4.185c-.452,0-.63.028-2.124.17l-1.725.164c-1.956.2-6.2.4-8.248.4-4.237,0-7.547-.375-9.927-2.206a8.253,8.253,0,0,1-3.1-5.948,17.751,17.751,0,0,1-.115-1.982l-4.411-.551a32.858,32.858,0,0,0-4.72-.129H166.048a32.86,32.86,0,0,0-4.72.129l-1.513.189c.56,1.248,1.08,2.494,1.551,3.721l1.278,3.332L151.386,7.026l-1.439-4.537c-.077-.242-.138-.435-.2-.608-3.477.584-8.5,1.175-16.405,1.941a15.135,15.135,0,0,0-2.328.283L126.675,5.19,125.058-6.936c-3.609,5.3-8.739,9.26-15.612,12.131L106,6.635l-1.671-3.342A7.974,7.974,0,0,0,102.292.556l-4.8-4.691L103.9-6.124c5.673-1.761,9.741-4.912,12.147-9.4H106.56a20.191,20.191,0,0,0-3.433.147l-4.6.7v-4.249l-.9,2.272-.243.944A31.1,31.1,0,0,1,92.278-3.518C89.556.2,86.422,2.7,81.1,5.392L77.76,7.087,75.852,3.859a7.863,7.863,0,0,0-1.875-2.306L69.4-2.8,75.3-5.076a17.931,17.931,0,0,0,3-1.417L72.253-4.568,71.2-8.667a28.122,28.122,0,0,0-2.6-6.92l-1.274-2.492a24.623,24.623,0,0,1-5.945,7.747,23.861,23.861,0,0,1-4.5,3.112L54.266-5.774a16.841,16.841,0,0,1-2.411,4.141C49.5,1.4,46.634,3.423,41.984,5.357l-3.5,1.455L36.844,3.4A7.547,7.547,0,0,0,35.023.775l-4.51-4.736,6.271-1.858a10.742,10.742,0,0,0,4.245-2.014c1.89-1.5,2.779-2.8,2.779-8.262,0-.232,0-.4-.009-.544h-.823a27.594,27.594,0,0,0-3.868.163l-4.484.547v-2.714l-.256.384c-1.959,6.342-4.517,11.132-7.7,14.711a36.1,36.1,0,0,1-12.707,9.1L10.6,7.1,8.8,3.874A6.116,6.116,0,0,0,6.954,1.587L2.024-2.67,7.756-5.02,5.572-8.006A4.76,4.76,0,0,0,3.6-9.713L.336-11.722a28,28,0,0,1-4.058,8.2C-6.444.2-9.578,2.7-14.9,5.392L-18.24,7.087l-1.907-3.228a7.863,7.863,0,0,0-1.875-2.306L-26.6-2.8-20.7-5.076a17.931,17.931,0,0,0,3-1.417l-6.043,1.925-1.055-4.1a28.122,28.122,0,0,0-2.6-6.92l-.778-1.522q-.281.17-.577.316l1,1.416-4.927,1.792-2.667-2.839-.068.048,1.691,3.294A57.252,57.252,0,0,1-46.592-8.315v.987q0,.121-.007.231c.507.033,1.169.057,2.023.057a55.938,55.938,0,0,0,6.881-.475,15.8,15.8,0,0,0,3.057-.641l4.9-1.447.611,13.54h-4.185c-.452,0-.63.028-2.124.17l-1.725.164c-1.956.2-6.2.4-8.248.4-4.237,0-7.547-.375-9.927-2.206a8.253,8.253,0,0,1-3.1-5.948,18.2,18.2,0,0,1-.117-2.066L-62.8-6.079a32.858,32.858,0,0,0-4.72-.129H-84.512a32.86,32.86,0,0,0-4.72.129l-4.5.562V-15.746A56.828,56.828,0,0,1-97.58-7.8c-3.707,6.033-8.743,10.278-16.332,13.77l-3.275,1.507-1.838-3.1A6.368,6.368,0,0,0-120.817,2.1l-5.044-4.248,6.1-2.511c.36-.148.7-.289,1.012-.425l-2.538-2.846A6.377,6.377,0,0,0-123.5-9.687l-3.621-2.089a33.1,33.1,0,0,1-5.247,8.226,36.1,36.1,0,0,1-12.707,9.1L-148.435,7.1l-1.807-3.226a6.116,6.116,0,0,0-1.844-2.287l-4.93-4.257,5.732-2.35-2.185-2.986a4.76,4.76,0,0,0-1.972-1.707l-1.629-1A25.788,25.788,0,0,1-165.305.546a32.465,32.465,0,0,1-9.425,4.929l-3.538,1.32-1.521-3.457A7.373,7.373,0,0,0-181.6.689l-4.419-4.921,6.41-1.629a16.874,16.874,0,0,0,7.324-3.423c.164-.137.322-.274.476-.412h-8.351a29.379,29.379,0,0,0-3.654.136l-4.442.494v-6.384l-1.063,1.536A23.713,23.713,0,0,1-197.27-3.168l-2.4,1.849A7.607,7.607,0,0,0-199.292.26l1.535,4.435-13.315,2.343V2.272A9.71,9.71,0,0,0-211.263.4l-1.464-8.028c-.347.086-.678.185-1.041.31l-3.969,1.369v0h-.013l-.414.143-.022-.122-4.12.2-.371.071-1.291.094-1.2.212-3.528.563.4,2.175a15.579,15.579,0,0,0,.638,2.784l1.411,4.361-13.345,2.4-.154-4.619A20.665,20.665,0,0,0-240.1-.513l-.441-2.415-4.047.639a22.311,22.311,0,0,0-2.817.607l-4.3,1.2-2.111-12.985h1.574l-1.457-8.959,4.571-.127a25.984,25.984,0,0,0,3.065-.313l1.844-.288a6.5,6.5,0,0,0-.3-.946l-1.819-4.631,13.59-2.162.173,4.5A12.527,12.527,0,0,0-232.434-25l2.888-.452a13.057,13.057,0,0,0,2.382-.532l4.439-1.537,1.6,9.169.612-.181-.04-.215h4.8c.335,0,.639-.015.949-.042l-.043-.107-1.926-4.709,13.436-2.032v4.651c0,.108.005.218.016.335l5.692-.952a4.56,4.56,0,0,0,1.286-.313l2.311-.924,3.063,2.757.734-.183-.269.6,2.239,2.015v-4.464l2.72.429v-8.253l4.716.857a15.133,15.133,0,0,0,3.028.159h11.168a15.133,15.133,0,0,0,3.028-.159l4.716-.857v9.085l3.694,4.148a20.5,20.5,0,0,0,6.629-7.624,10.193,10.193,0,0,0,1.157-2.73l.48-4.324,14.531,2.864-1.581,2.372,1.531-.021,1.555,3.418.127,0-.606-3.514,2.348-.817,6.176,6.079-1.834,2.75q-.538,1.741-1.136,3.328l1.913-1.426a23.6,23.6,0,0,0,6.91-7.826,16.122,16.122,0,0,0,1.482-3.48l.927-3.813,13.449,3-1.16,1.9,1.39-.012a4.56,4.56,0,0,0,1.54-.164l2.366-.819,6.391,6.391-1.754,2.293,3.165.432a28.674,28.674,0,0,0,4.644.187h17.056a28.674,28.674,0,0,0,4.644-.187l4.258-.581-.006-2.711a14.026,14.026,0,0,0-.078-2.321l-.741-4.632h13.7l-.776,4.658a13.177,13.177,0,0,0-.106,2.318v1.248a33.926,33.926,0,0,0,6.755-3.02c0-.07,0-.141,0-.212a7.689,7.689,0,0,1,7.68-7.68,7.7,7.7,0,0,1,7.712,7.68,7.682,7.682,0,0,1-.392,2.429l6.361-1.86.31.568,6.541-1.869,1.523,2.845.122.227v-2.722L3.369-21.029,1.627-16.653l-.243.944q-.088.414-.182.818l2.235-1.529a20.555,20.555,0,0,0,7.046-7.915,10.193,10.193,0,0,0,1.157-2.73l.48-4.324,14.531,2.864L25.07-26.155l1.531-.021,1.555,3.418.127,0-.606-3.514,2.348-.817,4.6,4.526v-6.564l4.624.73a22.192,22.192,0,0,0,3.792.207h16.7a5.71,5.71,0,0,0,2.005-.134l2.429-.694,6.069,6.884-1.215,1.476,8.49-2.483.31.568,6.541-1.869L85.894-21.6l.122.227v-2.722l12.512,2.872V-28.21l4.658.776a18.808,18.808,0,0,0,3.438.17h13.645a7.608,7.608,0,0,1,6.611-3.776,7.7,7.7,0,0,1,7.712,7.68,7.725,7.725,0,0,1-5.189,7.288A35.306,35.306,0,0,1,125.81-8.1h3.662c.317,0,.6,0,.859,0,1.21-3.062,2.261-6.125,3.552-10.2a48.86,48.86,0,0,0,2.177-8.126l.507-4.272,14.041,2.711-2.358,4.717a7.262,7.262,0,0,0-.57,1.635q-.477,1.569-.926,3.008l4.643-1.808,1.793,2.622c1.257,1.839,2.488,3.852,3.642,5.946v-7.215l4.54.619a28.674,28.674,0,0,0,4.644.187h17.056a28.674,28.674,0,0,0,4.644-.187l4.418-.6-.006-2.754a14.027,14.027,0,0,0-.078-2.321l-.741-4.632h13.7l-.776,4.658a13.176,13.176,0,0,0-.106,2.318v1.248a41.259,41.259,0,0,0,5.655-2.376l-3.24-3.78,9.821-4.427.039.044ZM-149.861-5.615a22.433,22.433,0,0,0,5-2.807,20.666,20.666,0,0,0,5.63-6.2l-1.378.023a35.562,35.562,0,0,1-7.2,7.4Zm159.04,0a22.433,22.433,0,0,0,5-2.807,20.667,20.667,0,0,0,5.63-6.2l-1.378.023a35.562,35.562,0,0,1-7.2,7.4ZM218.272-8.867v-4.875l-.021.009c-.238.1-1.136.526-2.7,1.292A57.611,57.611,0,0,1,204.128-8.38v.988q0,.124-.007.236c.5.03,1.164.052,2.023.052a55.939,55.939,0,0,0,6.881-.475,15.8,15.8,0,0,0,3.057-.641Zm-73.62-.375c-.233-.41-.44-.76-.64-1.081q-.217.614-.433,1.209Q144.125-9.177,144.652-9.242Zm-257.63.913c-.353-.231-.71-.455-1.078-.675q-.8.737-1.672,1.472l-2.789,2.347a25.144,25.144,0,0,0,4.3-2.3C-113.763-7.784-113.354-8.06-112.978-8.329Z" transform="translate(288.875 73.117)" fill="#fff"/>
    <path id="パス_5774" data-name="パス 5774" d="M-239.552-19.84l-5.952.928a29.743,29.743,0,0,1-3.52.352l.64,3.936a34.132,34.132,0,0,1,3.52-.736l5.952-.928.96,5.248-7.776,1.248a19.692,19.692,0,0,1-3.392.32l.64,3.936a25.75,25.75,0,0,1,3.264-.7l7.9-1.248,1.152,6.3a24.217,24.217,0,0,1,.416,3.36l4.288-.768a18.075,18.075,0,0,1-.768-3.3L-233.376-8.1l7.616-1.216c.64-.1,1.056-.16,1.28-.192a2.487,2.487,0,0,1,.512-.064,7.675,7.675,0,0,1,1.472-.16l-.7-3.84a28.437,28.437,0,0,1-3.328.736l-7.52,1.184-.96-5.248,6.752-1.056a27.168,27.168,0,0,1,3.072-.416l-.672-3.84a16.483,16.483,0,0,1-3.072.7l-6.752,1.056-.512-2.784a22.014,22.014,0,0,1-.384-3.008l-4.224.672a13.788,13.788,0,0,1,.768,3.008Zm29.5,4.352-2.656.448a17.948,17.948,0,0,1-3.04.288l.672,3.648a16.454,16.454,0,0,1,2.816-.7l2.752-.448L-207.328-.32a13.343,13.343,0,0,1,.256,2.592l4-.7a12.248,12.248,0,0,1-.608-2.592l-2.272-11.84,7.52-1.248a9.855,9.855,0,0,0,1.184-.224,15.071,15.071,0,0,1-5.44,5.728,9.016,9.016,0,0,1,2.976,2.272,18.175,18.175,0,0,0,6.3-8.32,7.326,7.326,0,0,1,.8-1.536l-2.24-2.016a8.077,8.077,0,0,1-2.112.544l-9.568,1.6-.48-2.464a12.57,12.57,0,0,1-.32-2.464l-3.808.576a10.065,10.065,0,0,1,.608,2.4Zm28.512-5.728a24.607,24.607,0,0,1,3.68-.16h11.3a24.607,24.607,0,0,1,3.68.16v-3.936a18.208,18.208,0,0,1-3.744.224h-11.168a18.208,18.208,0,0,1-3.744-.224Zm20.288,3.712a14,14,0,0,1-3.616.288H-180.1a22.714,22.714,0,0,1-4.16-.224v3.9a32.553,32.553,0,0,1,4.1-.16h15.584a16.65,16.65,0,0,1-5.152,7.488,20.781,20.781,0,0,1-8.9,4.224,11.15,11.15,0,0,1,2.5,3.712,28.476,28.476,0,0,0,8.384-4.352A22.628,22.628,0,0,0-160.32-13.44a14.427,14.427,0,0,1,.9-2.016Zm31.2-4.992a5.669,5.669,0,0,1-2.336.32l-7.008.1c-.608,0-1.12.032-1.536.064a7.548,7.548,0,0,0,.512-1.024l.416-.832a6.461,6.461,0,0,1,.416-.9,6.546,6.546,0,0,1,.544-.992l-4.384-.864a11.943,11.943,0,0,1-1.632,4.224,24.616,24.616,0,0,1-8.288,9.28,8.5,8.5,0,0,1,3.1,2.752,31.321,31.321,0,0,0,7.488-8.192l9.632-.16a25.34,25.34,0,0,1-9.344,13.5,28.818,28.818,0,0,1-7.008,3.776,9.86,9.86,0,0,1,2.72,3.36A32.327,32.327,0,0,0-135.36-6.208,33.191,33.191,0,0,0-128.8-18.56a6.019,6.019,0,0,1,.8-1.92Zm32-.48a8.4,8.4,0,0,1-2.816.384c-7.808.064-7.808.064-8.32.128A15.947,15.947,0,0,0-108.416-24a16.861,16.861,0,0,1,.96-1.792l-4.16-.928a19.508,19.508,0,0,1-1.856,4.448,27.51,27.51,0,0,1-8.032,9.12,10.158,10.158,0,0,1,3.2,2.56,33.106,33.106,0,0,0,7.488-8.608l9.952-.1a30.574,30.574,0,0,1-3.584,7.552,41.652,41.652,0,0,0-6.432-4.288l-2.432,2.848a36.227,36.227,0,0,1,6.56,4.576A23.229,23.229,0,0,1-112-4.16a32.251,32.251,0,0,1-6.24,3.2,10.156,10.156,0,0,1,2.656,3.3c6.816-3.136,11.328-6.912,14.592-12.224a53.672,53.672,0,0,0,4.1-8.8,5.732,5.732,0,0,1,.992-2.144Zm8.32,12.928a35.129,35.129,0,0,1,5.216-.16H-67.52a35.129,35.129,0,0,1,5.216.16V-14.5a31.425,31.425,0,0,1-5.184.224H-84.544a31.425,31.425,0,0,1-5.184-.224Zm39.136-11.68a16.243,16.243,0,0,1,.16-2.976H-54.72a16.9,16.9,0,0,1,.128,2.944l.032,14.848a24.112,24.112,0,0,0,.1,2.944A4.424,4.424,0,0,0-52.9-.7C-51.648.256-49.44.672-45.408.672c1.952,0,5.984-.192,7.872-.384,3.392-.32,3.552-.352,4.224-.352L-33.5-4.32a18.906,18.906,0,0,1-3.648.768,60.348,60.348,0,0,1-7.424.512c-3.1,0-4.928-.288-5.472-.832-.448-.448-.576-1.152-.576-2.944a3.115,3.115,0,0,1,.032-.512v-4.224a54.194,54.194,0,0,0,15.04-5.088l.832-.416a4.68,4.68,0,0,1,.672-.288l-2.56-3.616c-2.08,1.952-9.152,4.8-13.984,5.7Zm18.432-5.664a3.7,3.7,0,0,0-3.68,3.68A3.708,3.708,0,0,0-32.16-20a3.715,3.715,0,0,0,3.712-3.712A3.708,3.708,0,0,0-32.16-27.392Zm0,1.6a2.083,2.083,0,0,1,2.112,2.08A2.11,2.11,0,0,1-32.16-21.6a2.1,2.1,0,0,1-2.08-2.112A2.076,2.076,0,0,1-32.16-25.792Zm8.32,8.384a32.014,32.014,0,0,1,2.912,7.744l3.616-1.152A36.912,36.912,0,0,0-20.448-18.4Zm6.848-1.344a35.188,35.188,0,0,1,2.912,7.52l3.552-1.12a31.436,31.436,0,0,0-3.1-7.36Zm11.008-.32a14.2,14.2,0,0,1-.576,3.68c-1.376,5.12-3.52,8.384-7.264,11.1a20.757,20.757,0,0,1-5.44,2.944A11.623,11.623,0,0,1-16.7,1.824c4.736-2.4,7.392-4.48,9.76-7.712A27.316,27.316,0,0,0-2.528-16.544a6.735,6.735,0,0,1,.448-1.632ZM28.992-22.5a5.669,5.669,0,0,1-2.336.32l-7.008.1c-.608,0-1.12.032-1.536.064a7.546,7.546,0,0,0,.512-1.024l.416-.832a6.459,6.459,0,0,1,.416-.9A6.543,6.543,0,0,1,20-25.76l-4.384-.864A11.943,11.943,0,0,1,13.984-22.4,24.616,24.616,0,0,1,5.7-13.12a8.5,8.5,0,0,1,3.1,2.752,31.321,31.321,0,0,0,7.488-8.192l9.632-.16a25.34,25.34,0,0,1-9.344,13.5A28.818,28.818,0,0,1,9.568-1.44a9.86,9.86,0,0,1,2.72,3.36A32.327,32.327,0,0,0,23.68-6.208,33.191,33.191,0,0,0,30.24-18.56a6.019,6.019,0,0,1,.8-1.92ZM62.848-24.48a8.809,8.809,0,0,1-3.1.288H43.04a25.512,25.512,0,0,1-4.416-.256v4a30.759,30.759,0,0,1,4.352-.192h16.8a13.27,13.27,0,0,1-3.04,4.064,14.839,14.839,0,0,1-4.672,2.944,10.815,10.815,0,0,1,2.88,2.912,20.016,20.016,0,0,0,3.84-2.656,20.308,20.308,0,0,0,4.928-6.432,8.893,8.893,0,0,1,1.28-2.24Zm-15.2,6.464a8.1,8.1,0,0,1,.16,1.92c0,6.048-1.024,8.8-4.288,11.392a14.755,14.755,0,0,1-5.6,2.72,11.3,11.3,0,0,1,2.528,3.648c4-1.664,6.336-3.3,8.256-5.76,2.176-2.784,3.04-5.856,3.168-11.328A14.691,14.691,0,0,1,52-18.016Zm24.512.608a32.015,32.015,0,0,1,2.912,7.744l3.616-1.152A36.912,36.912,0,0,0,75.552-18.4Zm6.848-1.344a35.188,35.188,0,0,1,2.912,7.52l3.552-1.12a31.436,31.436,0,0,0-3.1-7.36Zm11.008-.32a14.2,14.2,0,0,1-.576,3.68c-1.376,5.12-3.52,8.384-7.264,11.1a20.757,20.757,0,0,1-5.44,2.944A11.623,11.623,0,0,1,79.3,1.824c4.736-2.4,7.392-4.48,9.76-7.712a27.316,27.316,0,0,0,4.416-10.656,6.735,6.735,0,0,1,.448-1.632Zm16.608-4.192a21.925,21.925,0,0,1-4.1-.224v4.16a23.055,23.055,0,0,1,4.032-.192h15.232c-2.048,8.512-7.84,14.464-16.7,17.216A11.776,11.776,0,0,1,107.9,1.5C118.016-2.72,123.68-9.248,126.272-19.712a4.373,4.373,0,0,0,.608.064,3.715,3.715,0,0,0,3.712-3.712,3.708,3.708,0,0,0-3.712-3.68,3.687,3.687,0,0,0-3.68,3.712c-.544.032-.928.064-1.888.064ZM126.88-25.44a2.083,2.083,0,0,1,2.112,2.08,2.11,2.11,0,0,1-2.112,2.112,2.1,2.1,0,0,1-2.08-2.112A2.076,2.076,0,0,1,126.88-25.44Zm13.152-.512a50.61,50.61,0,0,1-2.336,8.864c-1.664,5.248-2.944,8.864-4.64,12.9-1.344.064-2.112.1-2.752.1h-.832l.576,4.32A17.5,17.5,0,0,1,132.96-.16c9.568-.928,14.88-1.6,18.112-2.272.736-.16.736-.16,1.152-.256A32.768,32.768,0,0,1,153.76,1.28l3.872-2.016a74.851,74.851,0,0,0-7.744-14.816l-3.616,1.408a39.728,39.728,0,0,1,3.04,5.088c.768,1.44,1.152,2.144,1.5,2.912A126.468,126.468,0,0,1,137.5-4.512a190.057,190.057,0,0,0,6.336-18.24,9.8,9.8,0,0,1,.832-2.3Zm20.8,15.9a35.13,35.13,0,0,1,5.216-.16H183.04a35.13,35.13,0,0,1,5.216.16V-14.5a31.425,31.425,0,0,1-5.184.224H166.016a31.425,31.425,0,0,1-5.184-.224Zm39.3-11.744a16.244,16.244,0,0,1,.16-2.976H196a16.9,16.9,0,0,1,.128,2.944l.032,14.848a24.114,24.114,0,0,0,.1,2.944,4.424,4.424,0,0,0,1.568,3.264c1.248.96,3.456,1.376,7.488,1.376,1.952,0,5.984-.192,7.872-.384,3.392-.32,3.552-.352,4.224-.352l-.192-4.256a18.906,18.906,0,0,1-3.648.768,60.348,60.348,0,0,1-7.424.512c-3.1,0-4.928-.256-5.472-.832-.448-.448-.576-1.184-.576-3.04a2.124,2.124,0,0,1,.032-.416v-4.224a54.18,54.18,0,0,0,13.664-4.416c1.7-.832,2.656-1.28,2.88-1.376l-2.56-3.616c-2.08,1.952-9.152,4.8-13.984,5.7Zm12.928-3.456a20.467,20.467,0,0,1,3.168,4.9l2.3-1.056a20.346,20.346,0,0,0-3.2-4.864ZM222.4-23.36A18.826,18.826,0,0,0,219.264-28l-2.208,1.024a23.814,23.814,0,0,1,3.072,4.768Zm-.128,13.312a35.13,35.13,0,0,1,5.216-.16H244.48a35.13,35.13,0,0,1,5.216.16V-14.5a31.425,31.425,0,0,1-5.184.224H227.456a31.425,31.425,0,0,1-5.184-.224Z" transform="translate(288.375 73.117)" fill="#4295d2"/>
    <rect id="長方形_266" data-name="長方形 266" width="577.587" height="50.467" transform="translate(-2.389 33.828)" fill="none"/>
  </g>
</svg>
