<svg height="60.562" viewBox="0 0 93.006 60.562" width="93.006" xmlns="http://www.w3.org/2000/svg"><g fill="#e84c92"><path d="m241.6 184.02h-21.956a4.824 4.824 0 0 0 -4.82 4.817v21.007a4.824 4.824 0 0 0 4.82 4.817h21.956a4.823 4.823 0 0 0 4.815-4.817v-21.007a4.823 4.823 0 0 0 -4.815-4.817zm-24.848 4.817a2.892 2.892 0 0 1 2.893-2.89h21.955a2.889 2.889 0 0 1 2.887 2.89v19.677a2.891 2.891 0 0 1 -2.887 2.89h-21.956a2.894 2.894 0 0 1 -2.893-2.89z" transform="translate(-184.824 -178.527)"/><path d="m227.792 190.647a1.136 1.136 0 0 0 -1.136-1.136h-9.616v2.273h9.616a1.136 1.136 0 0 0 1.136-1.137z" transform="translate(-181.016 -169.09)"/><path d="m227.792 191.882a1.136 1.136 0 0 0 -1.136-1.136h-9.616v2.273h9.616a1.136 1.136 0 0 0 1.136-1.137z" transform="translate(-181.016 -166.968)"/><path d="m227.792 186.942a1.136 1.136 0 0 0 -1.136-1.136h-9.616v2.273h9.616a1.136 1.136 0 0 0 1.136-1.137z" transform="translate(-181.016 -175.458)"/><path d="m227.792 189.412a1.136 1.136 0 0 0 -1.136-1.136h-9.616v2.273h9.616a1.136 1.136 0 0 0 1.136-1.137z" transform="translate(-181.016 -171.213)"/><path d="m232.017 188.177a1.136 1.136 0 0 0 -1.136-1.136h-13.841v2.273h13.84a1.136 1.136 0 0 0 1.137-1.137z" transform="translate(-181.016 -173.335)"/><path d="m232.017 193.117a1.136 1.136 0 0 0 -1.136-1.136h-13.841v2.273h13.84a1.136 1.136 0 0 0 1.137-1.137z" transform="translate(-181.016 -164.845)"/><path d="m-15.96-7.815v-.6c0-2.01-.78-3.435-3.345-3.435h-1.035a.5.5 0 0 0 -.495.54v.27a.5.5 0 0 0 .495.525h1.1c1.56 0 1.98.945 1.98 2.1v.6a.42.42 0 0 0 .48.42h.345a.444.444 0 0 0 .475-.42zm.03 4.98a3.684 3.684 0 0 0 -3.975-3.7h-2.715v-5.28a.488.488 0 0 0 -.54-.465h-.255a.49.49 0 0 0 -.54.48v1.11h-4.665a.5.5 0 0 0 -.48.525v.285a.5.5 0 0 0 .48.525h4.665v2.82h-1.29a3.718 3.718 0 0 0 -3.81 3.7c0 2.52 1.455 3.69 2.88 3.69h1.02c1.3 0 2.535-.81 2.535-2.835v-3.21h2.715a2.465 2.465 0 0 1 2.605 2.37c0 1.575-.84 2.325-2.445 2.325h-.615a.5.5 0 0 0 -.54.54v.27a.537.537 0 0 0 .6.54h.63c2.45 0 3.74-1.245 3.74-3.69zm-7.97.585c0 1.02-.36 1.83-1.755 1.83-1.155 0-2.1-.555-2.1-2.385a2.37 2.37 0 0 1 2.495-2.385h1.36zm22.73 1.77v-10.365a1.073 1.073 0 0 0 -1.1-1.1h-3.01a1.077 1.077 0 0 0 -1.11 1.1v10.365a1.092 1.092 0 0 0 1.11 1.08h3a1.082 1.082 0 0 0 1.11-1.08zm-5.94.09a.7.7 0 0 0 -.12-.39l-2.625-3.42a10.873 10.873 0 0 0 .24-1.6h1.98a.55.55 0 0 0 .51-.57.565.565 0 0 0 -.51-.585h-1.965v-3.66h1.95a.535.535 0 0 0 .495-.555.539.539 0 0 0 -.495-.57h-4.59v-.345a.54.54 0 0 0 -.57-.555.534.534 0 0 0 -.585.45 8.306 8.306 0 0 1 -.825 3.42.7.7 0 0 0 -.045.255.525.525 0 0 0 .57.57.616.616 0 0 0 .555-.315 8.84 8.84 0 0 0 .75-2.355h1.59v3.66h-3.075a.565.565 0 0 0 -.51.585.55.55 0 0 0 .51.57h3.045a7.064 7.064 0 0 1 -3.3 5.74.506.506 0 0 0 -.24.435.581.581 0 0 0 .57.615.757.757 0 0 0 .465-.21 7.655 7.655 0 0 0 3.075-3.72l2.235 3a.5.5 0 0 0 .4.18.567.567 0 0 0 .515-.63zm4.785-.51a.365.365 0 0 1 -.36.36h-2.19a.355.355 0 0 1 -.36-.36v-9.51a.371.371 0 0 1 .375-.375h2.16a.371.371 0 0 1 .375.375zm15.84-7.89c0-1.8-.525-3.03-3.585-3.03h-7.89a.493.493 0 0 0 -.5.51v.24a.51.51 0 0 0 .5.54h7.68c1.98 0 2.31.495 2.385 1.89.015.3.2.42.525.42h.27c.405 0 .615-.165.615-.57zm.45 5.91c0-2.34-1.32-3.615-3.9-3.615h-6.75c-.285 0-.435-.105-.42-.375l.09-2.28c.015-.27-.18-.42-.525-.42h-.33a.48.48 0 0 0 -.525.45l-.105 2.91c-.03.69.465.99 1.125.99h7.395c1.68 0 2.535.9 2.535 2.325 0 1.5-.96 2.31-2.535 2.31h-8.58a.513.513 0 0 0 -.5.51v.285a.493.493 0 0 0 .5.51h8.61c2.385 0 3.915-1.155 3.915-3.6zm15.075-6.255v-.285c0-.3-.12-.525-.435-.525h-.915v-1.56a.481.481 0 0 0 -.525-.495h-.285a.473.473 0 0 0 -.525.495v1.56h-8.13v-1.575a.474.474 0 0 0 -.54-.48h-.3a.459.459 0 0 0 -.525.495v1.56h-.825c-.315 0-.45.21-.45.525v.285c0 .33.12.525.45.525h.825v4.785c0 3.285 1.305 4.575 4.68 4.575h6.135a.488.488 0 0 0 .525-.525v-.3a.5.5 0 0 0 -.525-.525h-6.135c-2.55 0-3.315-.75-3.315-3.21v-4.8h8.13v1.335c0 1.68-.345 2.22-1.8 2.22h-1.4a.489.489 0 0 0 -.51.54v.3a.477.477 0 0 0 .51.525h1.53c2.385 0 3-1.23 3-3.495v-1.425h.915c.3 0 .44-.195.44-.525z" transform="translate(46 57.7)"/></g><path d="m0 0h93.006v60.562h-93.006z" fill="none"/></svg>