<svg height="61" viewBox="0 0 98 61" width="98" xmlns="http://www.w3.org/2000/svg"><g fill="#e84c92"><path d="m197.988 199.218a19.234 19.234 0 0 0 -38.327 3.072 19.582 19.582 0 0 0 .079 3.164 18.9 18.9 0 0 0 .8 3.569l-.867 1.194a11.958 11.958 0 0 0 -.038 4.942 2.683 2.683 0 0 0 2.77 1.136l1.925-.4a19.371 19.371 0 0 0 14.572 6.652 19.186 19.186 0 0 0 19.161-20.191 18.984 18.984 0 0 0 -.075-3.138zm-17.2 19.226a17.157 17.157 0 0 1 -15.643-6.764l-3.159.663a.6.6 0 0 1 -.614-.943l1.963-2.713a17.173 17.173 0 1 1 17.453 9.757z" transform="translate(-129.202 -181.854)"/><path d="m185.479 206.627a1.766 1.766 0 0 1 -.283 1.136 1.128 1.128 0 0 1 -.905.337h-7.1a1.9 1.9 0 0 1 -1.936-1.938v-6.532h-12.06a1.046 1.046 0 0 1 -.851-.31 1.715 1.715 0 0 1 -.258-1.085q0-1.395 1.109-1.395h21.02a1.1 1.1 0 0 1 .851.31 2.178 2.178 0 0 1 0 2.156 1.064 1.064 0 0 1 -.851.324h-5.888v5.527h5.965c.792-.001 1.187.489 1.187 1.47zm-.155-15.7a1.129 1.129 0 0 1 -.348.916 1.864 1.864 0 0 1 -1.2.3c-1.017 0-1.525-.4-1.525-1.213v-1.936h-17.121v1.963a1.1 1.1 0 0 1 -.348.889 1.81 1.81 0 0 1 -1.174.3q-1.5 0-1.5-1.185v-2.816a1.9 1.9 0 0 1 1.938-1.936h7.954v-.362a1.182 1.182 0 0 1 .362-.954 1.974 1.974 0 0 1 1.267-.313c1.1 0 1.653.424 1.653 1.267v.362h8.107a1.9 1.9 0 0 1 1.936 1.936zm-15.156 11.655-3.9 5.206a1.069 1.069 0 0 1 -.851.544 2.013 2.013 0 0 1 -1.24-.557 1.5 1.5 0 0 1 -.672-1.1 1.253 1.253 0 0 1 .31-.778l3.9-5.127a1.135 1.135 0 0 1 .878-.544 2.034 2.034 0 0 1 1.2.555 1.493 1.493 0 0 1 .685 1.049 1.222 1.222 0 0 1 -.311.752zm11.981-9.768a1.626 1.626 0 0 1 -.283 1.071 1.082 1.082 0 0 1 -.854.321h-14.612a1.056 1.056 0 0 1 -.854-.31 1.728 1.728 0 0 1 -.258-1.082c0-.93.372-1.395 1.112-1.395h14.615a1.114 1.114 0 0 1 .854.307 1.627 1.627 0 0 1 .279 1.088z" transform="translate(-124.248 -177.641)"/><path d="m-15.63-11.13a.5.5 0 0 0 -.48-.525h-5.79v-.495c0-.39-.27-.525-.6-.525-.345 0-.615.135-.615.525v.495h-5.805a.492.492 0 0 0 -.465.525.5.5 0 0 0 .465.54h2.43a10.034 10.034 0 0 1 .59 1.99h-1.86a1.1 1.1 0 0 0 -1.1 1.11v8.15a.563.563 0 0 0 .6.54.562.562 0 0 0 .6-.54v-4.695a4.542 4.542 0 0 0 4.14-3.555h2.055v1.485a1.328 1.328 0 0 0 1.47 1.47h2.64v3.855a.572.572 0 0 1 -.615.63h-1.56a.576.576 0 0 0 -.5.585.566.566 0 0 0 .525.585h1.755a1.459 1.459 0 0 0 1.59-1.59v-6.915a1.107 1.107 0 0 0 -1.11-1.11h-1.71l.63-1.995h2.235a.508.508 0 0 0 .485-.54zm-3.54 9.93v-1.605a1.091 1.091 0 0 0 -1.095-1.095h-4.485a1.1 1.1 0 0 0 -1.11 1.095v1.605a1.1 1.1 0 0 0 1.11 1.095h4.485a1.091 1.091 0 0 0 1.095-1.095zm1.815-4.395h-2.475a.569.569 0 0 1 -.63-.63v-1.365h2.775a.332.332 0 0 1 .33.36zm-2.19-4.995-.63 1.995h-4.525a11.824 11.824 0 0 0 -.57-1.995zm-5.025 3a3.281 3.281 0 0 1 -3.09 2.535v-2.175a.343.343 0 0 1 .345-.36zm4.305 6.18a.359.359 0 0 1 -.36.375h-3.78a.347.347 0 0 1 -.345-.375v-1.185a.347.347 0 0 1 .345-.375h3.78a.359.359 0 0 1 .36.375zm18.33-6.555v-3.135a1.089 1.089 0 0 0 -1.11-1.11h-8.955a1.086 1.086 0 0 0 -1.1 1.11v3.135a1.091 1.091 0 0 0 1.1 1.095h8.955a1.1 1.1 0 0 0 1.11-1.095zm.75 7.7v-4.07a1.077 1.077 0 0 0 -1.1-1.11h-3.46a1.089 1.089 0 0 0 -1.11 1.11v4.065a1.1 1.1 0 0 0 1.11 1.095h3.465a1.082 1.082 0 0 0 1.095-1.095zm-7.005 0v-4.07a1.089 1.089 0 0 0 -1.11-1.11h-3.465a1.077 1.077 0 0 0 -1.1 1.11v4.065a1.082 1.082 0 0 0 1.1 1.095h3.465a1.1 1.1 0 0 0 1.11-1.095zm5-8.01a.365.365 0 0 1 -.36.36h-7.94a.365.365 0 0 1 -.36-.36v-2.535a.352.352 0 0 1 .36-.345h7.935a.352.352 0 0 1 .36.345zm.9 7.695a.349.349 0 0 1 -.35.34h-2.745a.362.362 0 0 1 -.36-.345v-3.435a.352.352 0 0 1 .36-.345h2.745a.339.339 0 0 1 .34.345zm-7.005 0a.352.352 0 0 1 -.36.345h-2.745a.349.349 0 0 1 -.345-.345v-3.44a.339.339 0 0 1 .345-.345h2.74a.343.343 0 0 1 .36.345zm23.685-10.53a.436.436 0 0 0 -.42-.45h-3.42v-.57a.525.525 0 0 0 -.57-.525.525.525 0 0 0 -.57.525v.57h-3.365a.427.427 0 0 0 -.42.45.45.45 0 0 0 .42.465h3.355v1.035h-2.92a.439.439 0 0 0 -.405.465.434.434 0 0 0 .405.45h2.92v1.065h-3.325a.423.423 0 0 0 -.42.435.436.436 0 0 0 .42.48h7.89a.444.444 0 0 0 .4-.48.43.43 0 0 0 -.4-.435h-3.42v-1.07h2.985a.448.448 0 0 0 .435-.45.452.452 0 0 0 -.435-.465h-2.985v-1.035h3.42a.461.461 0 0 0 .42-.465zm-8.69 5.245v-.09l-.555-3.735a.417.417 0 0 0 -.39-.36.42.42 0 0 0 -.45.435l.525 3.855a.4.4 0 0 0 .42.315.418.418 0 0 0 .45-.42zm8.115 5.31v-4.065a1.1 1.1 0 0 0 -1.115-1.11h-5.44a1.1 1.1 0 0 0 -1.11 1.11v5.31a.539.539 0 0 0 .57.5.525.525 0 0 0 .555-.5v-1.86h5.415v.525c0 .435-.2.765-.645.765h-1.26a.434.434 0 0 0 -.405.45.449.449 0 0 0 .405.465h1.575a1.424 1.424 0 0 0 1.455-1.59zm-10.02 1.245v-12.84a.535.535 0 0 0 -.555-.495.539.539 0 0 0 -.57.495v12.84a.549.549 0 0 0 .57.5.545.545 0 0 0 .555-.5zm-1.68-10.32a.466.466 0 0 0 -.435-.42.445.445 0 0 0 -.45.4 21.35 21.35 0 0 1 -.48 4.75c0 .03-.015.075-.015.105a.423.423 0 0 0 .42.435.429.429 0 0 0 .42-.33 20.068 20.068 0 0 0 .54-4.94zm10.575 5.76h-5.415v-.66a.355.355 0 0 1 .36-.36h4.71a.352.352 0 0 1 .345.36zm0 1.86h-5.415v-1.005h5.415zm16.725 2.4a.5.5 0 0 0 -.345-.48 4.284 4.284 0 0 1 -1.695-1.02 8.314 8.314 0 0 0 1.515-4.605 1.01 1.01 0 0 0 -1.05-1.02h-3.765v-4.02a.347.347 0 0 1 .36-.36h2.985a.355.355 0 0 1 .36.36v.8a.567.567 0 0 1 -.6.6h-1.35a.507.507 0 0 0 -.48.495.518.518 0 0 0 .48.54h1.545a1.406 1.406 0 0 0 1.515-1.48v-1.33a1.1 1.1 0 0 0 -1.11-1.1h-3.72a1.091 1.091 0 0 0 -1.095 1.1v11.82a.525.525 0 0 0 .555.5.535.535 0 0 0 .555-.5v-6.33h3.4a.355.355 0 0 1 .36.36 6.393 6.393 0 0 1 -1.125 3.39 6.394 6.394 0 0 1 -1.1-2.73.451.451 0 0 0 -.45-.375.436.436 0 0 0 -.48.42 7.061 7.061 0 0 0 1.39 3.465 4.924 4.924 0 0 1 -1.38 1.02.473.473 0 0 0 -.24.42.554.554 0 0 0 .495.555c.45 0 1.5-.9 1.8-1.215a4.607 4.607 0 0 0 2.155 1.26.53.53 0 0 0 .515-.54zm-6.75-4.62a.514.514 0 0 0 -.48-.525h-1.02l.495-2.58h.525a.514.514 0 0 0 .48-.525.54.54 0 0 0 -.48-.54h-2.49v-1.86h2a.53.53 0 0 0 .495-.54.526.526 0 0 0 -.495-.525h-2v-.81a.557.557 0 0 0 -.615-.525.552.552 0 0 0 -.6.525v.81h-1.995a.516.516 0 0 0 -.5.525.52.52 0 0 0 .5.54h1.995v1.86h-2.43a.529.529 0 0 0 -.48.54.5.5 0 0 0 .48.525h.465a13.244 13.244 0 0 1 .405 2.58h-.855a.506.506 0 0 0 -.5.525.525.525 0 0 0 .5.555h2.415v1.8h-1.995a.53.53 0 0 0 -.5.54.525.525 0 0 0 .5.555h1.995v1.44a.612.612 0 0 0 1.215 0v-1.44h2a.534.534 0 0 0 .495-.555.541.541 0 0 0 -.495-.54h-2v-1.8h2.49a.533.533 0 0 0 .48-.555zm-2.055-3.105-.5 2.58h-2.13a15.411 15.411 0 0 0 -.42-2.58z" transform="translate(49 58)"/></g><path d="m0 0h98v61h-98z" fill="none"/></svg>