<svg height="60.562" viewBox="0 0 97.331 60.562" width="97.331" xmlns="http://www.w3.org/2000/svg"><path d="m223.1 184.487h-32.247a3.855 3.855 0 0 0 -3.853 3.852v19.861a3.853 3.853 0 0 0 3.855 3.852h32.245a3.853 3.853 0 0 0 3.855-3.852v-19.861a3.855 3.855 0 0 0 -3.855-3.852zm-11.584 15.6-6.315 3.961c-1.59.995-2.89.28-2.89-1.59v-8.365c0-1.87 1.3-2.585 2.89-1.59l6.315 3.961a1.974 1.974 0 0 1 -.002 3.62z" fill="#e84c92" transform="translate(-157.999 -177.113)"/><path d="m-22.275.15v-.315a.488.488 0 0 0 -.465-.535 7.238 7.238 0 0 1 -4.065-1.14 8.1 8.1 0 0 0 3.195-6.65v-1.74a1.114 1.114 0 0 0 -1.125-1.125h-9.165a.469.469 0 0 0 -.495.51v.3a.469.469 0 0 0 .495.51h8.52a.4.4 0 0 1 .405.405v1.2c0 4.845-4.275 7.6-9.39 7.74-.27 0-.465.195-.465.555v.24c0 .345.18.525.48.525a13.508 13.508 0 0 0 6.375-1.68 8.706 8.706 0 0 0 5.235 1.665.467.467 0 0 0 .465-.465zm14.145-11.04a1.437 1.437 0 0 0 -1.515-1.5 1.462 1.462 0 0 0 -1.515 1.5 1.45 1.45 0 0 0 1.515 1.49 1.45 1.45 0 0 0 1.515-1.49zm.675 11.07v-.36a.427.427 0 0 0 -.45-.48h-.225c-.63 0-.9-.18-1.14-.96l-2.415-7.815a3.065 3.065 0 0 0 -3.285-2.37h-1.965a2.729 2.729 0 0 0 -3.045 2.625l-.99 6.915c0 .225.165.36.435.36h.27a.586.586 0 0 0 .63-.495l.915-6.39a1.705 1.705 0 0 1 1.965-1.725h1.74c1.035 0 1.725.4 2.145 1.74l2.4 7.695a2.1 2.1 0 0 0 2.25 1.725h.285a.424.424 0 0 0 .48-.465zm-1.445-11.07a.743.743 0 0 1 -.75.75.755.755 0 0 1 -.765-.75.755.755 0 0 1 .765-.75.752.752 0 0 1 .75.75zm9.015.36v-.195a.49.49 0 0 0 -.48-.51h-5.125a.5.5 0 0 0 -.48.51v.21a.5.5 0 0 0 .48.51h5.13a.478.478 0 0 0 .48-.525zm6.69.09v-.435a.419.419 0 0 0 -.39-.465.438.438 0 0 0 -.135.03c-1.08.345-1.635 1.425-1.68 3l-.03 1.065c-.12 4.005-2.415 6.6-7.08 6.6h-3.31a.49.49 0 0 0 -.5.5v.31a.513.513 0 0 0 .5.51h3.255c5.25 0 8.3-2.79 8.475-7.965l.03-.885c.03-.735.165-1.455.585-1.71a.622.622 0 0 0 .285-.555zm-6.685 4.23v-.19a.49.49 0 0 0 -.48-.51h-5.13a.5.5 0 0 0 -.48.51v.21a.5.5 0 0 0 .48.51h5.13a.478.478 0 0 0 .48-.53zm19.065.135v-.765a1.114 1.114 0 0 0 -1.125-1.125h-5.96l-.045-.93c-.015-.255-.195-.42-.54-.42h-.21c-.3 0-.51.1-.495.39l.045.96h-1.155a.469.469 0 0 0 -.495.51v.24a.469.469 0 0 0 .495.515h1.2l.29 6.91a.474.474 0 0 0 .54.48h.24c.285 0 .48-.135.465-.435l-.285-6.955h5.37a.4.4 0 0 1 .4.405v.345c0 2.385-1.245 2.73-3.165 2.865-.24.015-.495.09-.495.48v.3a.419.419 0 0 0 .45.48h.045c2.705-.175 4.43-1.1 4.43-4.25zm15.99.69v-2.34a.5.5 0 0 0 -.54-.51h-.235a.485.485 0 0 0 -.54.5v2.335c0 2.775-1.11 4.74-3.3 4.74h-.27a.4.4 0 0 1 -.4-.405v-10.26a.48.48 0 0 0 -.51-.51h-.285a.484.484 0 0 0 -.525.51v10.89a1.111 1.111 0 0 0 1.115 1.11h.765c3.345 0 4.725-2.22 4.725-6.06zm-9.96.4v-6.345a.484.484 0 0 0 -.525-.51h-.285a.48.48 0 0 0 -.51.51v6.27c0 3.255-.99 3.975-1.98 4.38a.615.615 0 0 0 -.33.615v.38c0 .27.15.405.36.405a.415.415 0 0 0 .135-.02c1.77-.415 3.135-1.75 3.135-5.68z" fill="#e84c92" transform="translate(49 57.7)"/><path d="m0 0h97.331v60.562h-97.331z" fill="none"/></svg>