<svg height="61" viewBox="0 0 92 61" width="92" xmlns="http://www.w3.org/2000/svg" xmlns:xlink="http://www.w3.org/1999/xlink"><clipPath id="a"><path d="m0 0h37.843v39.505h-37.843z"/></clipPath><path d="m-15.585-7.56a.518.518 0 0 0 -.48-.54h-2.94v-2.07h2.505a.546.546 0 0 0 .51-.555.532.532 0 0 0 -.51-.54h-2.505v-.87a.543.543 0 0 0 -.6-.525.548.548 0 0 0 -.615.525v.87h-2.49a.52.52 0 0 0 -.5.54.535.535 0 0 0 .5.555h2.49v2.07h-2.925a.518.518 0 0 0 -.48.54.518.518 0 0 0 .48.54h7.08a.518.518 0 0 0 .48-.54zm0 3.12a.483.483 0 0 0 -.48-.54h-.8v-.93a.525.525 0 0 0 -.585-.495.517.517 0 0 0 -.585.495v.93h-5.025a.509.509 0 0 0 -.48.54.538.538 0 0 0 .48.57h5.025v3.1a.591.591 0 0 1 -.63.63h-1.17a.55.55 0 0 0 -.51.57.565.565 0 0 0 .51.585h1.38a1.507 1.507 0 0 0 1.595-1.57v-3.315h.8a.509.509 0 0 0 .475-.57zm-5.28 4.23a.222.222 0 0 0 -.015-.1l-.72-2.7a.529.529 0 0 0 -.51-.375.557.557 0 0 0 -.585.525.255.255 0 0 0 .015.105l.69 2.7a.553.553 0 0 0 .525.375.581.581 0 0 0 .6-.53zm-2.85-4.29a.567.567 0 0 0 -.48-.6.375.375 0 0 0 -.21.06 6.453 6.453 0 0 1 -.915.39v-4.17h1.08a.519.519 0 0 0 .5-.57.548.548 0 0 0 -.5-.6h-1.08v-2.145a.533.533 0 0 0 -.57-.525.538.538 0 0 0 -.585.525v2.145h-1.245c.045-.585.075-1.185.075-1.845a.492.492 0 0 0 -.51-.525.476.476 0 0 0 -.495.51 17.214 17.214 0 0 1 -.63 4.98 1.032 1.032 0 0 0 -.03.2.473.473 0 0 0 .51.48c.24 0 .4-.105.495-.42a16.212 16.212 0 0 0 .465-2.2h1.365v4.545a16.992 16.992 0 0 1 -2.355.5c-.285.045-.435.285-.435.63a.55.55 0 0 0 .51.6 14.115 14.115 0 0 0 2.28-.495v3.69a.536.536 0 0 0 .585.51.531.531 0 0 0 .57-.51v-4.06a11.563 11.563 0 0 0 1.275-.555.54.54 0 0 0 .33-.545zm23.13 2.34a.517.517 0 0 0 -.51-.555h-.4v-7.29a1.1 1.1 0 0 0 -1.095-1.11h-2.51v-1.035c0-.33-.27-.495-.585-.495a.51.51 0 0 0 -.57.495v1.035h-2.49v-1.035c0-.33-.24-.495-.57-.495s-.57.165-.57.495v1.035h-2.535a1.1 1.1 0 0 0 -1.11 1.11v7.29h-.42a.515.515 0 0 0 -.495.555.515.515 0 0 0 .495.555h12.85a.517.517 0 0 0 .515-.555zm-.3 2.82a.482.482 0 0 0 -.345-.51 11.942 11.942 0 0 1 -3.45-1.44.609.609 0 0 0 -.255-.075.57.57 0 0 0 -.555.525.52.52 0 0 0 .165.39 11.093 11.093 0 0 0 3.78 1.65.33.33 0 0 0 .12.015.55.55 0 0 0 .54-.555zm-8.64-1.5a.555.555 0 0 0 -.54-.525.463.463 0 0 0 -.27.075 12.461 12.461 0 0 1 -3.435 1.44.491.491 0 0 0 -.36.51.55.55 0 0 0 .54.555.33.33 0 0 0 .12-.015 11.093 11.093 0 0 0 3.78-1.65.52.52 0 0 0 .165-.39zm6.84-6.09h-2.415v-3.075h2.07a.362.362 0 0 1 .345.36zm-3.57 0h-2.49v-3.075h2.49zm3.57 4.215h-2.415v-3.12h2.415zm-7.2-4.215h-2.475v-2.715a.368.368 0 0 1 .375-.36h2.1zm3.63 4.215h-2.49v-3.12h2.49zm-3.63 0h-2.475v-3.12h2.475zm24.27-8.4a.436.436 0 0 0 -.42-.45h-3.42v-.57a.525.525 0 0 0 -.57-.525.525.525 0 0 0 -.57.525v.57h-3.36a.427.427 0 0 0 -.42.45.45.45 0 0 0 .42.465h3.355v1.035h-2.92a.439.439 0 0 0 -.405.465.434.434 0 0 0 .405.45h2.92v1.065h-3.325a.423.423 0 0 0 -.42.435.436.436 0 0 0 .42.48h7.89a.444.444 0 0 0 .4-.48.43.43 0 0 0 -.4-.435h-3.42v-1.065h2.985a.448.448 0 0 0 .435-.45.452.452 0 0 0 -.435-.465h-2.985v-1.035h3.42a.461.461 0 0 0 .42-.465zm-8.685 5.25v-.09l-.555-3.735a.417.417 0 0 0 -.39-.36.42.42 0 0 0 -.45.435l.525 3.855a.4.4 0 0 0 .42.315.418.418 0 0 0 .45-.42zm8.115 5.31v-4.065a1.1 1.1 0 0 0 -1.115-1.11h-5.44a1.1 1.1 0 0 0 -1.11 1.11v5.31a.539.539 0 0 0 .57.5.525.525 0 0 0 .555-.5v-1.86h5.415v.525c0 .435-.2.765-.645.765h-1.26a.434.434 0 0 0 -.405.45.449.449 0 0 0 .405.465h1.575a1.424 1.424 0 0 0 1.455-1.59zm-10.02 1.245v-12.84a.535.535 0 0 0 -.555-.495.539.539 0 0 0 -.57.495v12.84a.549.549 0 0 0 .57.5.545.545 0 0 0 .555-.5zm-1.68-10.32a.466.466 0 0 0 -.435-.42.445.445 0 0 0 -.45.4 21.35 21.35 0 0 1 -.48 4.75c0 .03-.015.075-.015.105a.423.423 0 0 0 .42.435.429.429 0 0 0 .42-.33 20.068 20.068 0 0 0 .54-4.94zm10.575 5.76h-5.415v-.66a.355.355 0 0 1 .36-.36h4.71a.352.352 0 0 1 .345.36zm0 1.86h-5.415v-1.005h5.415zm16.725 2.4a.5.5 0 0 0 -.345-.48 4.284 4.284 0 0 1 -1.695-1.02 8.314 8.314 0 0 0 1.515-4.605 1.01 1.01 0 0 0 -1.05-1.02h-3.765v-4.02a.347.347 0 0 1 .36-.36h2.985a.355.355 0 0 1 .36.36v.8a.567.567 0 0 1 -.6.6h-1.35a.507.507 0 0 0 -.48.495.518.518 0 0 0 .48.54h1.545a1.406 1.406 0 0 0 1.515-1.48v-1.33a1.1 1.1 0 0 0 -1.11-1.1h-3.72a1.091 1.091 0 0 0 -1.095 1.1v11.82a.525.525 0 0 0 .555.5.535.535 0 0 0 .555-.5v-6.33h3.4a.355.355 0 0 1 .36.36 6.393 6.393 0 0 1 -1.125 3.39 6.394 6.394 0 0 1 -1.1-2.73.451.451 0 0 0 -.45-.375.436.436 0 0 0 -.48.42 7.061 7.061 0 0 0 1.39 3.465 4.924 4.924 0 0 1 -1.38 1.02.473.473 0 0 0 -.24.42.554.554 0 0 0 .495.555c.45 0 1.5-.9 1.8-1.215a4.607 4.607 0 0 0 2.155 1.26.53.53 0 0 0 .515-.54zm-6.75-4.62a.514.514 0 0 0 -.48-.525h-1.02l.495-2.58h.525a.514.514 0 0 0 .48-.525.54.54 0 0 0 -.48-.54h-2.49v-1.86h2a.53.53 0 0 0 .495-.54.526.526 0 0 0 -.495-.525h-2v-.81a.557.557 0 0 0 -.615-.525.552.552 0 0 0 -.6.525v.81h-1.995a.516.516 0 0 0 -.5.525.52.52 0 0 0 .5.54h1.995v1.86h-2.43a.529.529 0 0 0 -.48.54.5.5 0 0 0 .48.525h.465a13.244 13.244 0 0 1 .405 2.58h-.855a.506.506 0 0 0 -.5.525.525.525 0 0 0 .5.555h2.415v1.8h-1.995a.53.53 0 0 0 -.5.54.525.525 0 0 0 .5.555h1.995v1.44a.612.612 0 0 0 1.215 0v-1.44h2a.534.534 0 0 0 .495-.555.541.541 0 0 0 -.495-.54h-2v-1.8h2.49a.533.533 0 0 0 .48-.555zm-2.055-3.105-.5 2.58h-2.13a15.411 15.411 0 0 0 -.42-2.58z" fill="#e84c92" transform="translate(45.999 58)"/><g clip-path="url(#a)" transform="translate(31.135 .269)"><path d="m35.172 10.027h-9.872l6.079-3.364a1.038 1.038 0 0 0 .521-.743 1.01 1.01 0 0 0 -.273-.864l-4.483-4.737a1.061 1.061 0 0 0 -.786-.319 1.017 1.017 0 0 0 -.758.38c-3.654 4.487-5.615 6.961-6.679 8.379-1.064-1.418-3.021-3.892-6.679-8.379a1.017 1.017 0 0 0 -.757-.38 1.033 1.033 0 0 0 -.785.319l-4.485 4.736a1.025 1.025 0 0 0 .247 1.607l6.079 3.364h-9.867a2.676 2.676 0 0 0 -2.674 2.674v4.78a2.651 2.651 0 0 0 2.442 2.625v14.264a5.144 5.144 0 0 0 5.136 5.136h22.687a5.144 5.144 0 0 0 5.135-5.136v-14.264a2.651 2.651 0 0 0 2.442-2.625v-4.78a2.674 2.674 0 0 0 -2.671-2.671m-33.115 7.451v-4.78a.616.616 0 0 1 .618-.615h11.717v6.015h-11.717a.616.616 0 0 1 -.618-.615m31.289 15.5a3.085 3.085 0 0 1 -3.08 3.083h-6.813v-15.916h9.893zm-18.954-11.392v14.47h-6.812a3.085 3.085 0 0 1 -3.079-3.083v-12.828h9.893zm21.4-4.113a.615.615 0 0 1 -.615.615h-11.724v-6.012h11.72a.615.615 0 0 1 .615.615z" fill="#e84c92" transform="translate(0 -.001)"/></g><path d="m0 0h92v61h-92z" fill="none"/></svg>