<svg height="61" viewBox="0 0 93 61" width="93" xmlns="http://www.w3.org/2000/svg"><path d="m108.18 186.007v-1.24a1 1 0 0 0 -.968-.99c-.527-.03-12.454-.506-19.745 5.959-7.291-6.459-19.223-5.978-19.745-5.959a1 1 0 0 0 -.968.99v1.24a.992.992 0 0 0 -.878.968v23.418a.973.973 0 0 0 .332.731 1.031 1.031 0 0 0 .775.256 37.31 37.31 0 0 1 19.917 3.74 1.11 1.11 0 0 0 .394.152 1.293 1.293 0 0 0 .177.014 1.043 1.043 0 0 0 .568-.169 37.4 37.4 0 0 1 19.914-3.738 1.061 1.061 0 0 0 .775-.256.973.973 0 0 0 .332-.731v-23.417a.992.992 0 0 0 -.88-.968zm-19.7 5.535c5.505-5.206 14.68-5.758 17.665-5.793v22.388a36.26 36.26 0 0 0 -17.665 3.472zm-19.7-5.793c2.982.035 12.158.587 17.663 5.793v20.066a36.038 36.038 0 0 0 -15.51-3.54c-.7 0-1.425.022-2.153.068z" fill="#e84c92" transform="translate(-40.876 -177.847)"/><path d="m-22.275.15v-.315a.488.488 0 0 0 -.465-.535 7.238 7.238 0 0 1 -4.065-1.14 8.1 8.1 0 0 0 3.195-6.65v-1.74a1.114 1.114 0 0 0 -1.125-1.125h-9.165a.469.469 0 0 0 -.495.51v.3a.469.469 0 0 0 .495.51h8.52a.4.4 0 0 1 .405.405v1.2c0 4.845-4.275 7.6-9.39 7.74-.27 0-.465.195-.465.555v.24c0 .345.18.525.48.525a13.508 13.508 0 0 0 6.375-1.68 8.706 8.706 0 0 0 5.235 1.665.467.467 0 0 0 .465-.465zm13.95-4.74v-.33a.485.485 0 0 0 -.51-.495h-4.035c-2.625 0-4.755-1.26-4.755-2.61v-3.33a.457.457 0 0 0 -.51-.48h-.33c-.33 0-.525.165-.525.48v11.555a.463.463 0 0 0 .525.48h.33a.458.458 0 0 0 .51-.48v-5.93a6.742 6.742 0 0 0 4.755 1.65h4.035a.488.488 0 0 0 .51-.51zm14.385-1.02a.645.645 0 0 0 -.585-.66h-10.965a.634.634 0 0 0 -.57.66.629.629 0 0 0 .57.645h10.965a.641.641 0 0 0 .585-.645zm13.935-.27v-5.07a.48.48 0 0 0 -.51-.51h-.315a.476.476 0 0 0 -.5.51v5.055c0 4-1.815 5.265-5.175 5.265h-3.095a.463.463 0 0 0 -.48.525v.285a.453.453 0 0 0 .48.5h3.07c4.13-.005 6.525-1.745 6.525-6.56zm-10.23.9v-5.97a.485.485 0 0 0 -.495-.51h-.315a.48.48 0 0 0 -.51.51v5.97a.469.469 0 0 0 .51.495h.3a.462.462 0 0 0 .51-.495zm24.795-.63a.645.645 0 0 0 -.585-.66h-10.965a.634.634 0 0 0 -.57.66.629.629 0 0 0 .57.645h10.965a.641.641 0 0 0 .585-.645z" fill="#e84c92" transform="translate(47 58)"/><path d="m0 0h93v61h-93z" fill="none"/></svg>