<svg height="60.562" viewBox="0 0 96.61 60.562" width="96.61" xmlns="http://www.w3.org/2000/svg"><g fill="#e84c92"><circle cx="48.28" cy="12.632" r="7.139"/><ellipse cx="65.402" cy="16.287" rx="5.777" ry="5.777"/><path d="m146.655 201.883-.005-.318a38.5 38.5 0 0 0 -.606-6.16 6.7 6.7 0 0 0 -2.917-3.417 7.9 7.9 0 0 1 -8.765-.03 6.725 6.725 0 0 0 -2.962 3.442s-.079.459-.179 1.123a8.394 8.394 0 0 0 -.693-2.743 8.31 8.31 0 0 0 -3.6-4.225 9.763 9.763 0 0 1 -10.834-.035 8.3 8.3 0 0 0 -3.665 4.26 8.5 8.5 0 0 0 -.7 2.816c-.1-.7-.19-1.2-.19-1.2a6.722 6.722 0 0 0 -2.963-3.447 7.9 7.9 0 0 1 -8.768.03 6.722 6.722 0 0 0 -2.917 3.417 38.836 38.836 0 0 0 -.606 6.16l-.005.318c0 .016-.016.024-.016.041v2.285a.8.8 0 0 0 .794.794h48.829a.8.8 0 0 0 .794-.794v-2.281c-.01-.012-.026-.019-.026-.036z" transform="translate(-73.255 -168.74)"/><path d="m102.822 197.3a5.777 5.777 0 1 0 -5.777-5.777 5.777 5.777 0 0 0 5.777 5.777z" transform="translate(-71.897 -175.234)"/><path d="m-27.42-2.37v-.33a.48.48 0 0 0 -.51-.51h-4.515l-.585-5.745h4.74a.465.465 0 0 0 .5-.495v-.33a.465.465 0 0 0 -.5-.495h-4.89l-.12-1.215a.516.516 0 0 0 -.585-.51h-.345c-.285 0-.465.135-.465.42l.135 1.305h-5.055a.453.453 0 0 0 -.48.495v.315a.458.458 0 0 0 .48.51h5.19l.6 5.745h-5.835a.485.485 0 0 0 -.495.51v.315a.469.469 0 0 0 .495.51h5.97l.225 2.175a.546.546 0 0 0 .6.5h.345a.4.4 0 0 0 .45-.42l-.225-2.25h4.365a.476.476 0 0 0 .51-.5zm12.1-3.7v-.77a1.114 1.114 0 0 0 -1.12-1.125h-5.96l-.045-.93c-.015-.255-.195-.42-.54-.42h-.21c-.3 0-.51.1-.495.39l.045.96h-1.155a.469.469 0 0 0 -.5.51v.24a.469.469 0 0 0 .5.51h1.2l.29 6.915a.474.474 0 0 0 .54.48h.24c.285 0 .48-.135.465-.435l-.285-6.955h5.37a.4.4 0 0 1 .4.405v.345c0 2.385-1.245 2.73-3.165 2.865-.24.015-.495.09-.495.48v.3a.419.419 0 0 0 .45.48h.045c2.705-.175 4.43-1.1 4.43-4.25zm14.25-4.41v-.32a.472.472 0 0 0 -.49-.5h-10.7a.461.461 0 0 0 -.48.495v.315a.458.458 0 0 0 .48.51h10.7a.476.476 0 0 0 .495-.505zm.29 6.18v-2.27a1.114 1.114 0 0 0 -1.12-1.13h-10.73a.458.458 0 0 0 -.48.51v.27a.463.463 0 0 0 .48.525h10.03a.394.394 0 0 1 .405.405v1.73c0 2.67-1.29 3.63-4.335 3.63h-5.65a.466.466 0 0 0 -.495.525v.255a.466.466 0 0 0 .495.525h5.715c3.765 0 5.685-1.665 5.685-4.975zm13.395-2.12v-3.72a1.114 1.114 0 0 0 -1.125-1.125h-7.86a.8.8 0 0 0 -.9.795c-.09 1.845-.53 3.18-1.95 3.63a.582.582 0 0 0 -.4.585v.375a.4.4 0 0 0 .39.42h.06c1.635-.18 2.85-1.875 3.03-4.305a.192.192 0 0 1 .18-.165h6.85a.407.407 0 0 1 .4.42v3.03c0 3.945-2.1 5.835-6.885 5.835h-2.485a.469.469 0 0 0 -.5.51v.285a.469.469 0 0 0 .5.51h2.52c5.79 0 8.175-2.775 8.175-7.08zm14.43 3.075v-.3c0-.645-.645-.81-1.14-1.005a9.558 9.558 0 0 0 .09-1.35v-4.095a1.114 1.114 0 0 0 -1.125-1.125h-7.965a1.084 1.084 0 0 0 -1.14 1.1c-.015 1.69-.555 3.07-1.515 3.42a.71.71 0 0 0 -.36.72v.375a.362.362 0 0 0 .375.375.539.539 0 0 0 .165-.03c1.185-.42 2.28-1.41 2.505-4.245a.384.384 0 0 1 .375-.39h6.945a.4.4 0 0 1 .4.405v3.48a8.52 8.52 0 0 1 -.06.915 27.573 27.573 0 0 0 -7.56-1.155.457.457 0 0 0 -.5.495v.285a.485.485 0 0 0 .48.525 26.534 26.534 0 0 1 7.315 1.15c-.81 2.355-3.03 3.015-5.85 3.015h-2.97a.469.469 0 0 0 -.5.51v.3a.465.465 0 0 0 .5.495h3.03c3.06 0 6.03-.81 7.065-3.885a7.892 7.892 0 0 0 1.125.405c.18 0 .315-.135.315-.39zm12.765-2.265a.645.645 0 0 0 -.585-.66h-10.965a.634.634 0 0 0 -.57.66.629.629 0 0 0 .57.645h10.965a.641.641 0 0 0 .585-.645z" transform="translate(48 57.7)"/></g><path d="m0 0h96.61v60.562h-96.61z" fill="none"/></svg>