<svg height="60.562" viewBox="0 0 92.285 60.562" width="92.285" xmlns="http://www.w3.org/2000/svg"><path d="m-19.838-9.828v-.182a.458.458 0 0 0 -.448-.476h-4.788a.467.467 0 0 0 -.448.476v.2a.467.467 0 0 0 .448.476h4.788a.446.446 0 0 0 .448-.494zm6.244.084v-.406a.391.391 0 0 0 -.364-.434.409.409 0 0 0 -.126.028c-1.008.322-1.526 1.33-1.568 2.8l-.028.994c-.112 3.738-2.254 6.162-6.608 6.162h-3.094a.457.457 0 0 0 -.462.462v.292a.478.478 0 0 0 .462.476h3.038c4.9 0 7.742-2.6 7.91-7.434l.028-.826c.028-.686.154-1.358.546-1.6a.581.581 0 0 0 .266-.514zm-6.244 3.944v-.182a.458.458 0 0 0 -.448-.476h-4.788a.467.467 0 0 0 -.448.476v.2a.467.467 0 0 0 .448.476h4.788a.446.446 0 0 0 .448-.494zm18.998 5.94v-.294a.455.455 0 0 0 -.434-.5 6.755 6.755 0 0 1 -3.794-1.068 7.559 7.559 0 0 0 2.982-6.2v-1.626a1.04 1.04 0 0 0 -1.05-1.05h-8.554a.438.438 0 0 0 -.462.476v.28a.438.438 0 0 0 .462.476h7.952a.376.376 0 0 1 .378.378v1.12c0 4.522-3.99 7.1-8.764 7.224-.252 0-.434.182-.434.518v.226c0 .322.168.49.448.49a12.607 12.607 0 0 0 5.95-1.57 8.125 8.125 0 0 0 4.886 1.554.436.436 0 0 0 .434-.434zm12.964-9.912v-.252a.452.452 0 0 0 -.476-.49h-10.276a.452.452 0 0 0 -.476.49v.252a.441.441 0 0 0 .476.476h10.276a.441.441 0 0 0 .476-.476zm.21 3.99v-.252a.435.435 0 0 0 -.476-.476h-10.724a.435.435 0 0 0 -.462.49v.238a.434.434 0 0 0 .462.462h7.056v1.036c0 2.506-1.274 3.724-4.83 3.724h-1.68a.434.434 0 0 0 -.462.46v.28a.438.438 0 0 0 .462.478h1.68c4.284 0 6.16-1.764 6.16-4.942v-1.036h2.338a.438.438 0 0 0 .476-.462zm13.366 5.11v-2.128a3.242 3.242 0 0 0 -2.94-3.346c-.028 0-.07-.014-.1-.014a.41.41 0 0 0 -.392.462v.35a.45.45 0 0 0 .336.462 2.035 2.035 0 0 1 1.82 2.072v1.624a.36.36 0 0 1 -.378.378h-8.046a.36.36 0 0 1 -.378-.378v-3.71a4.569 4.569 0 0 1 4.3-5c.154-.028.364-.21.364-.6v-.238a.346.346 0 0 0 -.378-.378h-.1c-3.136.406-5.46 2.464-5.46 6.062v4.1c0 .868.462 1.316 1.05 1.316h9.254a1.028 1.028 0 0 0 1.048-1.034z" fill="#e84c92" transform="translate(46 56.7)"/><path d="m163.859 184.456h-22.926a13.656 13.656 0 0 0 -13.655 13.656v.288a13.656 13.656 0 0 0 13.655 13.656h22.926a13.656 13.656 0 0 0 13.656-13.656v-.288a13.656 13.656 0 0 0 -13.656-13.656zm-19.384 16.271h-2.507v2.5a1.926 1.926 0 1 1 -3.852 0v-2.5h-2.507a1.926 1.926 0 1 1 0-3.852h2.507v-2.506a1.926 1.926 0 1 1 3.852 0v2.506h2.507a1.926 1.926 0 0 1 0 3.852zm17.021-2.555a3.409 3.409 0 1 1 3.409-3.409 3.41 3.41 0 0 1 -3.405 3.408zm6.2 6.739a3.41 3.41 0 1 1 3.409-3.409 3.409 3.409 0 0 1 -3.405 3.409z" fill="#e84c92" transform="translate(-106.278 -177.082)"/><path d="m0 0h92.285v60.562h-92.285z" fill="none"/></svg>